<svg width="104" height="102" viewBox="0 0 104 102" fill="none" xmlns="http://www.w3.org/2000/svg">
<path d="M82.9055 99.145L73.8281 90.0489L78.5938 85.2734L87.6711 94.3695C89.0327 95.7339 89.0327 97.7805 87.6711 99.145C86.5365 100.282 84.2671 100.282 82.9055 99.145Z" fill="#37474F"/>
<path d="M17.0915 99.145L26.1689 90.0489L21.4033 85.2734L12.3259 94.3695C10.9643 95.7339 10.9643 97.7805 12.3259 99.145C13.4606 100.282 15.7299 100.282 17.0915 99.145Z" fill="#5A5B6A"/>
<path d="M49.9963 97.7811C75.0629 97.7811 95.3833 77.4188 95.3833 52.3007C95.3833 27.1826 75.0629 6.82031 49.9963 6.82031C24.9298 6.82031 4.60938 27.1826 4.60938 52.3007C4.60938 77.4188 24.9298 97.7811 49.9963 97.7811Z" fill="#C8372D"/>
<path d="M49.9971 88.6866C70.0503 88.6866 86.3066 72.3968 86.3066 52.3023C86.3066 32.2078 70.0503 15.918 49.9971 15.918C29.9438 15.918 13.6875 32.2078 13.6875 52.3023C13.6875 72.3968 29.9438 88.6866 49.9971 88.6866Z" fill="#EEEEEE"/>
<path d="M28.5016 72.5732L29.7852 73.8594L50.6427 52.9589L49.3592 51.6727L28.5016 72.5732Z" fill="#C8372D"/>
<path d="M52.2653 22.7383H47.7266V52.3005H52.2653V22.7383Z" fill="#292A31"/>
<path d="M62.8372 68.854L66.5273 65.1562L51.7666 50.3651L48.0764 54.0629L62.8372 68.854Z" fill="#292A31"/>
<path d="M49.9957 56.85C52.5024 56.85 54.5344 54.8138 54.5344 52.3019C54.5344 49.7901 52.5024 47.7539 49.9957 47.7539C47.4891 47.7539 45.457 49.7901 45.457 52.3019C45.457 54.8138 47.4891 56.85 49.9957 56.85Z" fill="#292A31"/>
<path d="M49.9959 54.5754C51.2492 54.5754 52.2653 53.5573 52.2653 52.3014C52.2653 51.0455 51.2492 50.0273 49.9959 50.0273C48.7426 50.0273 47.7266 51.0455 47.7266 52.3014C47.7266 53.5573 48.7426 54.5754 49.9959 54.5754Z" fill="#C8372D"/>
<path d="M54.5344 0H45.457V6.82206H54.5344V0Z" fill="#5A5B6A"/>
<path d="M96.2965 34.564C101.97 26.6049 101.062 15.4622 94.0272 8.41274C86.9922 1.36328 75.8724 0.45367 67.9297 6.13872L96.2965 34.564Z" fill="#5A5B6A"/>
<path d="M3.70531 34.564C-1.96806 26.6049 -1.06032 15.4622 5.97466 8.41274C13.0096 1.36328 24.1294 0.45367 32.0722 6.13872L3.70531 34.564Z" fill="#5A5B6A"/>
<path d="M54.8888 97.512L76.66 61.4586C77.8695 59.5138 80.7421 59.5138 81.8004 61.4586L103.572 97.512C104.781 99.4568 103.269 102 101.001 102H57.459C55.1912 102 53.6793 99.4568 54.8888 97.512Z" fill="#FFC147"/>
<path d="M77.0781 94.373C77.0781 94.0739 77.0781 93.7747 77.2171 93.4756C77.356 93.1764 77.495 93.0268 77.634 92.7277C77.7729 92.4285 78.0508 92.4286 78.3287 92.279C78.6067 92.1294 78.8846 92.1294 79.1625 92.1294C79.4404 92.1294 79.8573 92.1294 80.1352 92.279C80.4131 92.4286 80.691 92.5781 80.83 92.7277C80.9689 92.8773 81.1079 93.1764 81.2469 93.4756C81.3858 93.7747 81.3858 94.0739 81.3858 94.373C81.3858 94.6721 81.3858 94.9713 81.2469 95.2704C81.1079 95.5696 80.9689 95.7191 80.83 96.0183C80.691 96.3174 80.4131 96.3174 80.1352 96.467C79.8573 96.6166 79.5794 96.6166 79.1625 96.6166C78.7456 96.6166 78.4677 96.6166 78.3287 96.467C78.1898 96.3174 77.7729 96.1679 77.634 96.0183C77.495 95.8687 77.356 95.5696 77.2171 95.2704C77.0781 94.9713 77.0781 94.6721 77.0781 94.373ZM80.9689 89.7362H77.7729L77.2171 75.0781H81.3858L80.9689 89.7362Z" fill="#292A31"/>
</svg>
