<svg width="31" height="31" viewBox="0 0 31 31" fill="none" xmlns="http://www.w3.org/2000/svg">
<circle cx="15.5" cy="15.5" r="15.5" fill="#787885"/>
<path fill-rule="evenodd" clip-rule="evenodd" d="M22 9.75H19.6225L18.25 8.25H13.75L12.3775 9.75H10C9.175 9.75 8.5 10.425 8.5 11.25V20.25C8.5 21.075 9.175 21.75 10 21.75H22C22.825 21.75 23.5 21.075 23.5 20.25V11.25C23.5 10.425 22.825 9.75 22 9.75ZM16 13.5L15.295 15.045L13.75 15.75C13.75 14.5125 14.7625 13.5 16 13.5ZM18.25 15.75C18.25 14.5125 17.2375 13.5 16 13.5L16.705 15.045L18.25 15.75ZM16 18L16.705 16.455L18.25 15.75C18.25 16.9875 17.2375 18 16 18ZM16 18L15.295 16.455L13.75 15.75C13.75 16.9875 14.7625 18 16 18ZM10 20.25H22V11.25H18.9625L18.52 10.7625L17.59 9.75H14.41L13.48 10.7625L13.0375 11.25H10V20.25ZM16 12C13.93 12 12.25 13.68 12.25 15.75C12.25 17.82 13.93 19.5 16 19.5C18.07 19.5 19.75 17.82 19.75 15.75C19.75 13.68 18.07 12 16 12Z" fill="white"/>
</svg>
