<svg width="20" height="19" viewBox="0 0 20 19" fill="none" xmlns="http://www.w3.org/2000/svg">
<path fill-rule="evenodd" clip-rule="evenodd" d="M6.375 0.621094C6.78921 0.621094 7.125 0.95688 7.125 1.37109V2.62109H13.625V1.37109C13.625 0.95688 13.9608 0.621094 14.375 0.621094C14.7892 0.621094 15.125 0.95688 15.125 1.37109V2.62109H17.625C18.7296 2.62109 19.625 3.51652 19.625 4.62109V16.6211C19.625 17.7257 18.7296 18.6211 17.625 18.6211H2.625C1.52043 18.6211 0.625 17.7257 0.625 16.6211V4.62109C0.625 3.51652 1.52043 2.62109 2.625 2.62109H5.625V1.37109C5.625 0.95688 5.96079 0.621094 6.375 0.621094ZM13.625 4.12109V4.87109C13.625 5.28531 13.9608 5.62109 14.375 5.62109C14.7892 5.62109 15.125 5.28531 15.125 4.87109V4.12109H17.625C17.9011 4.12109 18.125 4.34495 18.125 4.62109V7.12109H2.125V4.62109C2.125 4.34495 2.34886 4.12109 2.625 4.12109H5.625V4.87109C5.625 5.28531 5.96079 5.62109 6.375 5.62109C6.78921 5.62109 7.125 5.28531 7.125 4.87109V4.12109H13.625ZM2.125 8.62109H18.125V16.6211C18.125 16.8972 17.9011 17.1211 17.625 17.1211H2.625C2.34886 17.1211 2.125 16.8972 2.125 16.6211V8.62109ZM15.625 14.6211V10.6211H11.625V14.6211H15.625Z" fill="#5A5B6A"/>
</svg>
