<svg width="20" height="20" viewBox="0 0 20 20" fill="none" xmlns="http://www.w3.org/2000/svg">
<path fill-rule="evenodd" clip-rule="evenodd" d="M0.625 3.37109C0.625 1.85231 1.85622 0.621094 3.375 0.621094H14.375C15.8938 0.621094 17.125 1.85231 17.125 3.3711V8.78573H15.625V3.3711C15.625 2.68074 15.0654 2.12109 14.375 2.12109H3.375C2.68464 2.12109 2.125 2.68074 2.125 3.37109V16.9809C2.125 17.6712 2.68464 18.2309 3.375 18.2309H7.875V19.7309H3.375C1.85622 19.7309 0.625 18.4996 0.625 16.9809V3.37109ZM4.375 5.71866C4.375 5.30444 4.71079 4.96866 5.125 4.96866H12.625C13.0392 4.96866 13.375 5.30444 13.375 5.71866C13.375 6.13287 13.0392 6.46866 12.625 6.46866H5.125C4.71079 6.46866 4.375 6.13287 4.375 5.71866ZM5.125 7.74914C4.71079 7.74914 4.375 8.08493 4.375 8.49914C4.375 8.91336 4.71079 9.24914 5.125 9.24914H12.625C13.0392 9.24914 13.375 8.91336 13.375 8.49914C13.375 8.08493 13.0392 7.74914 12.625 7.74914H5.125ZM4.375 11.2796C4.375 10.8654 4.71079 10.5296 5.125 10.5296H9.625C10.0392 10.5296 10.375 10.8654 10.375 11.2796C10.375 11.6938 10.0392 12.0296 9.625 12.0296H5.125C4.71079 12.0296 4.375 11.6938 4.375 11.2796ZM19.2125 11.5313C19.4292 11.7218 19.4292 12.0564 19.2125 12.2572L18.1904 13.1993L16.1074 11.2687L17.1295 10.3266C17.3461 10.1258 17.7072 10.1258 17.9127 10.3266L19.2125 11.5313ZM9.375 19.4443V17.5136L15.5186 11.8144L17.6016 13.7451L11.458 19.4443H9.375Z" fill="#5A5B6A"/>
</svg>
