<svg width="20" height="19" viewBox="0 0 20 19" fill="none" xmlns="http://www.w3.org/2000/svg">
<path d="M9.99919 18.4184L13.6834 7.08594H6.32031L9.99919 18.4184Z" fill="#4A4B57"/>
<path d="M1.1593 7.08594L0.0373779 10.5289C-0.0641467 10.8415 0.0454925 11.1866 0.313461 11.3815L9.99852 18.4184L1.1593 7.08594Z" fill="#E1E1E3"/>
<path d="M1.16016 7.08689H6.3205L4.09963 0.261882C3.98596 -0.087294 3.4906 -0.087294 3.37285 0.261882L1.16016 7.08689Z" fill="#4A4B57"/>
<path d="M18.8445 7.08594L19.9624 10.5289C20.064 10.8415 19.9543 11.1866 19.6864 11.3815L10 18.4184L18.8445 7.08594Z" fill="#E1E1E3"/>
<path d="M18.8439 7.08689H13.6836L15.9004 0.261882C16.014 -0.087294 16.5094 -0.087294 16.6272 0.261882L18.8439 7.08689Z" fill="#4A4B57"/>
<path d="M10 18.4184L13.6842 7.08594H18.8445L10 18.4184Z" fill="#787885"/>
<path d="M9.99937 18.4184L1.16016 7.08594H6.3205L9.99937 18.4184Z" fill="#787885"/>
</svg>
