<svg width="16" height="16" viewBox="0 0 16 16" fill="none" xmlns="http://www.w3.org/2000/svg">
<g opacity="0.2">
<path fill-rule="evenodd" clip-rule="evenodd" d="M7.99976 15.1646L10.9458 6.09766H5.05371L7.99976 15.1646Z" fill="#E24329"/>
<path fill-rule="evenodd" clip-rule="evenodd" d="M7.99966 15.1646L5.05361 6.09766H0.924805L7.99966 15.1646Z" fill="#FC6D26"/>
<path fill-rule="evenodd" clip-rule="evenodd" d="M0.925148 6.09766L0.0298978 8.85302C-0.0517589 9.10432 0.0376746 9.37963 0.251461 9.53494L8 15.1646L0.925148 6.09766Z" fill="#FCA326"/>
<path fill-rule="evenodd" clip-rule="evenodd" d="M0.924805 6.09746H5.05361L3.2792 0.636528C3.18794 0.355494 2.7904 0.355571 2.69914 0.636528L0.924805 6.09746Z" fill="#E24329"/>
<path fill-rule="evenodd" clip-rule="evenodd" d="M8 15.1646L10.946 6.09766H15.0749L8 15.1646Z" fill="#FC6D26"/>
<path fill-rule="evenodd" clip-rule="evenodd" d="M15.0749 6.09766L15.9701 8.85302C16.0518 9.10432 15.9623 9.37963 15.7485 9.53494L8 15.1646L15.0749 6.09766Z" fill="#FCA326"/>
<path fill-rule="evenodd" clip-rule="evenodd" d="M15.0751 6.09746H10.9463L12.7207 0.636528C12.812 0.355494 13.2095 0.355571 13.3008 0.636528L15.0751 6.09746Z" fill="#E24329"/>
</g>
</svg>
