<svg width="20" height="20" viewBox="0 0 20 20" fill="none" xmlns="http://www.w3.org/2000/svg">
<path d="M19.9895 10.1858C19.9895 9.36645 19.9214 8.76851 19.7742 8.14844H10.1992V11.8468H15.8195C15.7062 12.7658 15.0943 14.15 13.7346 15.08L13.7155 15.2039L16.7429 17.4957L16.9527 17.5161C18.879 15.7777 19.9895 13.2198 19.9895 10.1858Z" fill="#9696A0"/>
<path d="M10.2002 19.9322C12.9537 19.9322 15.2653 19.0463 16.9537 17.5183L13.7356 15.0822C12.8744 15.669 11.7186 16.0787 10.2002 16.0787C7.5034 16.0787 5.2145 14.3403 4.39856 11.9375L4.27897 11.9474L1.13101 14.3281L1.08984 14.4399C2.76686 17.6954 6.21158 19.9322 10.2002 19.9322Z" fill="#5A5B6A"/>
<path d="M4.3965 11.9363C4.18121 11.3163 4.05661 10.6518 4.05661 9.96534C4.05661 9.27878 4.18121 8.61443 4.38517 7.99435L4.37947 7.86229L1.19206 5.44336L1.08778 5.49183C0.3966 6.84275 0 8.35977 0 9.96534C0 11.5709 0.3966 13.0879 1.08778 14.4388L4.3965 11.9363Z" fill="#D2D2D6"/>
<path d="M10.2002 3.85336C12.1152 3.85336 13.4069 4.66168 14.1435 5.33718L17.0216 2.59107C15.254 0.985496 12.9537 0 10.2002 0C6.21158 0 2.76686 2.23672 1.08984 5.49214L4.38724 7.99466C5.2145 5.59183 7.5034 3.85336 10.2002 3.85336Z" fill="#19191D"/>
</svg>
