<svg width="100" height="100" viewBox="0 0 100 100" fill="none" xmlns="http://www.w3.org/2000/svg">
<g clip-path="url(#clip0)">
<path opacity="0.7" d="M81.5299 82.8951C81.5299 106.92 67.3945 97.1366 49.986 97.1366C32.5993 97.1366 18.5078 106.915 18.5078 82.8951C18.5078 71.9939 40.9164 55.0316 47.9286 50.0097C40.9164 44.9889 18.5078 28.0084 18.5078 17.1071C18.5078 -6.89414 32.5993 2.86564 49.986 2.86564C67.3945 2.86564 81.5299 -6.89048 81.5299 17.1071C81.5299 28.0084 59.0774 44.9889 52.0433 50.0097C59.0774 55.0316 81.5299 71.9939 81.5299 82.8951Z" fill="#FFF8EA"/>
<g opacity="0.5">
<path opacity="0.5" d="M69.3761 27.873C69.1753 27.8725 68.9789 27.8141 68.8106 27.7047C68.6422 27.5953 68.509 27.4396 68.4269 27.2563C68.3449 27.0731 68.3175 26.87 68.3481 26.6716C68.3787 26.4731 68.4659 26.2877 68.5993 26.1376C73.8347 20.2718 74.2407 17.7401 74.2407 17.1047C74.25 16.8345 74.3638 16.5784 74.5582 16.3906C74.7527 16.2027 75.0125 16.0977 75.2828 16.0977C75.5532 16.0977 75.813 16.2027 76.0074 16.3906C76.2018 16.5784 76.3157 16.8345 76.3249 17.1047C76.3249 20.0023 72.97 24.3706 70.1542 27.5254C70.0563 27.6349 69.9363 27.7224 69.8023 27.7823C69.6682 27.8422 69.523 27.8731 69.3761 27.873Z" fill="white"/>
</g>
<path d="M79.8316 85.3239C79.8316 104.601 69.3596 95.0398 49.9766 95.0398C30.6583 95.0398 20.207 104.601 20.207 85.3239C20.207 78.9751 50.3486 59.8945 50.3486 59.8945C50.3486 59.8945 79.8316 78.9751 79.8316 85.3239Z" fill="#FFC147"/>
<path d="M70.9394 31.9743L70.4809 32.4329C64.5226 38.2486 58.0907 43.5585 51.2516 48.3073L50.376 48.9171L49.5223 48.3073C41.2101 42.4341 32.043 34.8487 26.293 28.0572C25.9393 27.6414 25.6052 27.245 25.293 26.828C28.781 25.511 32.5003 24.9168 36.225 25.0816C39.9497 25.2463 43.602 26.1666 46.9601 27.7865L47.0382 27.8231C50.9978 29.5787 55.2289 30.6433 59.5479 30.9707L70.9394 31.9743Z" fill="#FFC147"/>
<path d="M84.9563 0H15.0829C13.9326 0 13 0.932561 13 2.08293V7.56344C13 8.71381 13.9326 9.64637 15.0829 9.64637H84.9563C86.1067 9.64637 87.0392 8.71381 87.0392 7.56344V2.08293C87.0392 0.932561 86.1067 0 84.9563 0Z" fill="#5A5B6A"/>
<path d="M84.9563 90.3555H15.0829C13.9326 90.3555 13 91.288 13 92.4384V97.9189C13 99.0693 13.9326 100.002 15.0829 100.002H84.9563C86.1067 100.002 87.0392 99.0693 87.0392 97.9189V92.4384C87.0392 91.288 86.1067 90.3555 84.9563 90.3555Z" fill="#5A5B6A"/>
<path d="M49.6484 46.5469H51.0472V64.3859H49.6484V46.5469Z" fill="#FFC147"/>
</g>
<defs>
<clipPath id="clip0">
<rect width="100" height="100" fill="white"/>
</clipPath>
</defs>
</svg>
