<svg width="26" height="26" viewBox="0 0 26 26" fill="none" xmlns="http://www.w3.org/2000/svg">
<path d="M25.9851 13.2424C25.9851 12.1772 25.8967 11.3998 25.7052 10.5938H13.2578V15.4016H20.5642C20.4169 16.5964 19.6215 18.3957 17.8538 19.6048L17.829 19.7658L21.7646 22.7452L22.0373 22.7718C24.5415 20.5118 25.9851 17.1865 25.9851 13.2424" fill="#4285F4"/>
<path d="M13.2576 25.9126C16.8371 25.9126 19.8421 24.761 22.037 22.7745L17.8535 19.6076C16.734 20.3705 15.2314 20.9031 13.2576 20.9031C9.75168 20.9031 6.77611 18.6432 5.7154 15.5195L5.55992 15.5324L1.46758 18.6273L1.41406 18.7727C3.59418 23.0048 8.07232 25.9126 13.2576 25.9126Z" fill="#34A853"/>
<path d="M5.71545 15.5151C5.43557 14.709 5.2736 13.8452 5.2736 12.9528C5.2736 12.0603 5.43557 11.1966 5.70073 10.3905L5.69331 10.2188L1.54968 7.07422L1.41411 7.13723C0.51558 8.89342 0 10.8656 0 12.9528C0 15.04 0.51558 17.0121 1.41411 18.7683L5.71545 15.5151" fill="#FBBC05"/>
<path d="M13.2576 5.00937C15.747 5.00937 17.4263 6.06018 18.3838 6.93833L22.1254 3.36839C19.8275 1.28115 16.8371 0 13.2576 0C8.07232 0 3.59418 2.90773 1.41406 7.13978L5.70068 10.3931C6.77611 7.26938 9.75169 5.00937 13.2576 5.00937" fill="#EB4335"/>
</svg>
