<svg width="26" height="26" viewBox="0 0 26 26" fill="none" xmlns="http://www.w3.org/2000/svg">
<path fill-rule="evenodd" clip-rule="evenodd" d="M13.043 0C5.82587 0 0 5.96258 0 13.3491C0 19.2226 3.73899 24.2063 8.95619 25.9862C9.65182 26.0752 9.82572 25.7192 9.82572 25.3632V23.0494C6.17368 23.8503 5.39111 21.2695 5.39111 21.2695C4.78243 19.7566 3.9129 19.3116 3.9129 19.3116C2.69555 18.5107 3.99985 18.5107 3.99985 18.5107C5.30415 18.5997 5.99978 19.8456 5.99978 19.8456C7.13017 21.8925 9.04314 21.2695 9.82572 20.9135C9.91268 20.0236 10.2605 19.4896 10.6953 19.1337C7.8258 18.7777 4.78243 17.6208 4.78243 12.5481C4.78243 11.1242 5.30415 9.8783 6.08673 8.98837C5.91282 8.63239 5.47806 7.29749 6.17369 5.42862C6.17369 5.42862 7.30408 5.07264 9.73877 6.76352C10.7822 6.49654 11.9126 6.31855 13.043 6.31855C14.1734 6.31855 15.3038 6.49654 16.3472 6.76352C18.8689 5.07264 19.9123 5.42862 19.9123 5.42862C20.6079 7.29749 20.1732 8.63239 19.9993 8.98837C20.8688 9.8783 21.3036 11.1242 21.3036 12.5481C21.3036 17.7098 18.2602 18.7777 15.3907 19.1337C15.8255 19.5786 16.2603 20.3796 16.2603 21.6255V25.2742C16.2603 25.6302 16.5211 26.0752 17.1298 25.8972C22.347 24.1173 25.999 19.1337 25.999 13.2601C26.086 5.96258 20.2601 0 13.043 0Z" fill="#181616"/>
</svg>
