<svg width="98" height="24" viewBox="0 0 98 24" fill="none" xmlns="http://www.w3.org/2000/svg">
<path d="M96.4624 17.8649C96.3091 17.7889 96.1557 17.7129 96.0791 17.7129C95.9257 17.561 95.7724 17.409 95.6957 17.333C95.619 17.257 95.619 17.1051 95.619 16.9531V13.3819C95.619 11.3304 95.159 9.81073 94.3156 8.89894C93.5488 8.06313 92.322 7.60723 90.6352 7.53125H90.0985C88.8717 7.53125 87.9516 7.68322 87.1849 8.06313C86.4181 8.36706 86.1114 8.82296 86.1114 9.27885C86.1114 9.43082 86.1881 9.65877 86.3415 9.73475C86.4948 9.88672 86.6482 9.88672 86.8782 9.88672C87.0315 9.88672 87.4916 9.73475 88.1816 9.35484C88.795 8.97492 89.4084 8.82296 90.0218 8.82296H90.7119C91.4019 8.89894 92.0153 9.12689 92.4754 9.5068C93.0888 9.9627 93.4721 10.6465 93.5488 11.4824H93.0121C92.1687 11.4824 91.4019 11.5583 90.7119 11.6343C89.4084 11.7863 88.2583 12.1662 87.4149 12.6981C86.1114 13.4579 85.498 14.5976 85.498 15.9653C85.498 17.0291 85.8814 17.8649 86.5715 18.4728C87.2615 19.0806 88.1816 19.3846 89.4084 19.3846C89.8685 19.3846 90.3285 19.3846 90.7886 19.2326C91.2486 19.1566 91.7086 19.0046 92.092 18.7767C92.8588 18.3968 93.4721 17.8649 94.0089 17.1051V18.3208C94.0089 18.6247 94.0855 18.8527 94.1622 18.9287C94.2389 19.0806 94.4689 19.0806 94.7756 19.0806C95.7724 19.0806 96.4624 19.0806 96.6925 18.9287C96.9225 18.8527 97.0758 18.7007 97.0758 18.4728C96.9991 18.1688 96.8458 18.0169 96.4624 17.8649ZM93.7788 14.4457C93.7788 15.2055 93.6255 15.7374 93.3955 16.1933C93.1654 16.5732 92.7821 17.0291 92.1687 17.333C91.862 17.485 91.5553 17.637 91.1719 17.7129C91.0186 17.7889 90.8652 17.7889 90.7119 17.7889C90.4819 17.7889 90.2518 17.8649 90.0218 17.8649C89.3317 17.8649 88.7184 17.7129 88.335 17.257C87.8749 16.8771 87.6449 16.3452 87.6449 15.6614C87.6449 14.5976 88.1816 13.8378 89.1784 13.23C89.6384 13.002 90.0985 12.7741 90.7119 12.6221C91.4786 12.4701 92.3987 12.3182 93.4721 12.3182H93.7788V14.4457Z" fill="#231F20"/>
<path d="M80.9743 10.4143C80.9743 10.1104 80.9743 9.95841 80.8977 9.80645C80.821 9.65448 80.7443 9.5785 80.5143 9.42653C80.4376 9.42653 80.3609 9.35055 80.2076 9.27457C79.9009 9.1226 79.8242 8.97064 79.8242 8.81867C79.8242 8.66671 79.8242 8.59072 79.9776 8.51474C80.0542 8.43876 80.2076 8.28679 80.4376 8.21081L80.591 8.13483C81.511 7.60295 82.2011 7.375 82.5078 7.375C82.6612 7.375 82.8145 7.45098 82.8912 7.60295C82.9679 7.75491 82.9679 8.05884 82.9679 8.66671V16.9488C82.9679 17.1768 82.9679 17.3287 83.0445 17.4807C83.1212 17.6327 83.1979 17.7087 83.2746 17.7087C83.3512 17.7846 83.5046 17.7846 83.6579 17.8606C84.0413 18.0126 84.2713 18.2405 84.2713 18.4685C84.2713 18.6204 84.1946 18.7724 84.0413 18.8484C83.8879 18.9244 83.6579 18.9244 83.2746 18.9244H80.7443C80.3609 18.9244 80.2076 18.9244 80.0542 18.8484C79.9009 18.7724 79.9009 18.6964 79.9009 18.5445C79.9009 18.3925 79.9009 18.3165 79.9776 18.2405C80.0542 18.1646 80.1309 18.0886 80.3609 18.0126C80.4376 18.0126 80.5143 17.9366 80.591 17.8606C80.8977 17.7087 81.051 17.4807 81.051 17.0248L80.9743 10.4143Z" fill="#231F20"/>
<path d="M80.2813 3.96144C80.2813 3.50554 80.4346 3.20161 80.6646 2.97366C80.8946 2.74572 81.278 2.59375 81.6614 2.59375C82.0447 2.59375 82.4281 2.74572 82.6581 2.97366C82.8882 3.20161 83.0415 3.50554 83.0415 3.96144C83.0415 4.34135 82.8882 4.72127 82.6581 4.94922C82.4281 5.17716 82.0447 5.32913 81.6614 5.32913C81.2013 5.32913 80.8946 5.17716 80.6646 4.94922C80.4346 4.72127 80.2813 4.41734 80.2813 3.96144Z" fill="#2AA9E0"/>
<path d="M77.9864 17.8649C77.833 17.7889 77.7563 17.7129 77.603 17.7129C77.4497 17.561 77.2963 17.409 77.2196 17.333C77.2196 17.257 77.143 17.1051 77.143 16.9531V13.3819C77.143 11.3304 76.6829 9.81073 75.8395 8.89894C75.0728 8.06313 73.846 7.60723 72.1591 7.53125H71.6224C70.3956 7.53125 69.4756 7.68322 68.7088 8.06313C67.9421 8.36706 67.6354 8.82296 67.6354 9.27885C67.6354 9.43082 67.7121 9.65877 67.8654 9.73475C68.0187 9.88672 68.1721 9.88672 68.4021 9.88672C68.5555 9.88672 69.0155 9.73475 69.6289 9.35484C70.319 8.97492 70.9324 8.82296 71.4691 8.82296H72.1591C72.8492 8.89894 73.4626 9.12689 73.9226 9.5068C74.536 9.9627 74.9194 10.6465 74.9961 11.4824H74.4594C73.616 11.4824 72.8492 11.5583 72.1591 11.6343C70.8557 11.7863 69.7823 12.1662 68.8622 12.6981C67.5587 13.4579 66.9453 14.5976 66.9453 15.9653C66.9453 17.0291 67.3287 17.8649 68.0187 18.4728C68.7088 19.0806 69.6289 19.3846 70.8557 19.3846C71.3157 19.3846 71.7758 19.3846 72.1591 19.2326C72.6192 19.1566 73.0792 19.0046 73.4626 18.7767C74.2293 18.3968 74.8427 17.8649 75.3795 17.1051V18.3208C75.3795 18.6247 75.4561 18.8527 75.5328 18.9287C75.6095 19.0806 75.8395 19.0806 76.1462 19.0806C77.143 19.0806 77.833 19.0806 78.063 18.9287C78.2931 18.8527 78.4464 18.7007 78.4464 18.4728C78.5231 18.1688 78.3697 18.0169 77.9864 17.8649ZM75.3028 14.4457C75.3028 15.2055 75.2261 15.7374 74.9961 16.1933C74.7661 16.5732 74.3827 17.0291 73.7693 17.333C73.4626 17.485 73.1559 17.637 72.7725 17.7129C72.6192 17.7889 72.4658 17.7889 72.3125 17.7889C72.0825 17.7889 71.8524 17.8649 71.6224 17.8649C70.9324 17.8649 70.319 17.7129 69.9356 17.257C69.4756 16.8771 69.2455 16.3452 69.2455 15.6614C69.2455 14.5976 69.7823 13.8378 70.779 13.23C71.2391 13.002 71.6991 12.7741 72.3125 12.6221C73.0792 12.4701 73.9993 12.3182 75.0728 12.3182H75.3028V14.4457Z" fill="#231F20"/>
<path d="M65.8672 7.8309C65.6372 7.67893 65.3305 7.67893 64.9471 7.67893H63.8737H63.1836C62.8769 7.67893 62.4169 7.60295 61.7268 7.52697C61.0368 7.45098 60.5 7.375 60.04 7.375C58.5065 7.375 57.2031 7.90688 56.283 8.89466C55.2862 9.88243 54.8262 11.2501 54.8262 12.8458C54.8262 14.4414 55.2862 15.8091 56.283 16.7969C57.2031 17.7846 58.4299 18.3165 59.9633 18.3165H60.1167C60.27 18.3165 60.5 18.3165 60.7301 18.2405C61.0368 18.1646 61.4201 18.0886 61.9569 18.0126C62.6469 18.3165 63.1836 18.6204 63.4903 18.9244C63.797 19.2283 63.9504 19.6082 63.9504 20.0641C63.9504 20.672 63.567 21.2039 62.8769 21.5078C62.1869 21.8117 61.2668 22.0397 60.1167 22.0397H59.9633C58.8899 22.0397 58.1232 21.9637 57.5098 21.7357C56.973 21.5838 56.6663 21.2798 56.6663 20.8999C56.6663 20.8999 56.6663 20.8239 56.743 20.672C56.743 20.52 56.8197 20.444 56.8197 20.3681C56.8197 20.2161 56.8197 20.1401 56.743 20.0641C56.6663 19.9881 56.5897 19.9122 56.4363 19.9122C56.1296 19.9122 55.8229 20.0641 55.5162 20.3681C55.2095 20.672 55.1329 20.9759 55.1329 21.4318C55.1329 22.1157 55.5929 22.6475 56.4363 23.0274C57.2797 23.4074 58.5065 23.5593 60.04 23.5593H60.1933C61.9569 23.5593 63.337 23.1794 64.3337 22.5716C65.4072 21.9637 65.9439 21.0519 65.9439 19.9881C65.9439 19.3803 65.7139 18.7724 65.3305 18.3165C64.8705 17.8606 64.2571 17.4807 63.4137 17.1768C64.1037 16.6449 64.6404 15.9611 64.9471 15.2012C65.3305 14.4414 65.4839 13.6056 65.4839 12.6938C65.4839 11.934 65.3305 11.2501 65.1005 10.6423C64.8705 9.95841 64.4871 9.42653 64.027 8.97064H64.6404H64.7938C65.4072 8.97064 65.7906 8.89465 66.0206 8.81867C66.2506 8.66671 66.4039 8.51474 66.4039 8.28679C66.1739 8.13483 66.0972 7.98286 65.8672 7.8309ZM62.4169 16.037C61.8802 16.7969 61.0368 17.1768 60.04 17.1768C59.0432 17.1768 58.1998 16.7969 57.6631 16.037C57.1264 15.2772 56.8197 14.2134 56.8197 12.8458C56.8197 11.5541 57.1264 10.4903 57.6631 9.73047C58.1998 8.97064 59.0432 8.66671 60.04 8.66671C61.0368 8.66671 61.8802 9.04662 62.4169 9.80645C62.9536 10.5663 63.2603 11.5541 63.2603 12.8458C63.2603 14.2134 63.0303 15.2772 62.4169 16.037Z" fill="#231F20"/>
<path d="M50.3767 10.4143C50.3767 10.1104 50.3767 9.95841 50.3 9.80645C50.2233 9.65448 50.1467 9.5785 49.9166 9.42653C49.84 9.42653 49.7633 9.35055 49.6099 9.27457C49.3032 9.1226 49.2266 8.97064 49.2266 8.81867C49.2266 8.66671 49.2266 8.59072 49.3799 8.51474C49.4566 8.43876 49.6099 8.28679 49.84 8.21081L49.9933 8.13483C50.9134 7.60295 51.6035 7.375 51.9102 7.375C52.0635 7.375 52.2168 7.45098 52.2935 7.60295C52.3702 7.75491 52.3702 8.05884 52.3702 8.66671V16.9488C52.3702 17.1768 52.3702 17.3287 52.4469 17.4807C52.5235 17.6327 52.6002 17.7087 52.6769 17.7087C52.7536 17.7846 52.9069 17.7846 53.0603 17.8606C53.4436 18.0126 53.6737 18.2405 53.6737 18.4685C53.6737 18.6204 53.597 18.7724 53.4436 18.8484C53.2903 18.9244 53.0603 18.9244 52.6769 18.9244H50.1466C49.7633 18.9244 49.6099 18.9244 49.4566 18.8484C49.3032 18.7724 49.3032 18.6964 49.3032 18.5445C49.3032 18.3925 49.3032 18.3165 49.3799 18.2405C49.4566 18.1646 49.5333 18.0886 49.7633 18.0126C49.84 18.0126 49.9166 17.9366 49.9933 17.8606C50.3 17.7087 50.4533 17.4807 50.4533 17.0248L50.3767 10.4143Z" fill="#231F20"/>
<path d="M49.7676 3.96144C49.7676 3.50554 49.9209 3.20161 50.1509 2.97366C50.381 2.74572 50.7643 2.59375 51.1477 2.59375C51.5311 2.59375 51.8378 2.74572 52.1445 2.97366C52.3745 3.27759 52.5278 3.58153 52.5278 3.96144C52.5278 4.34135 52.3745 4.72127 52.1445 4.94922C51.9144 5.17716 51.6078 5.32913 51.1477 5.32913C50.6877 5.32913 50.381 5.17716 50.1509 4.94922C49.8443 4.72127 49.7676 4.41734 49.7676 3.96144Z" fill="#05A550"/>
<path d="M44.6306 4.03755C44.6306 3.73362 44.6306 3.58165 44.5539 3.42968C44.4772 3.3537 44.4006 3.20174 44.1705 3.12575C44.0939 3.04977 44.0172 3.04977 43.8638 2.97379C43.5571 2.82182 43.4805 2.66986 43.4805 2.51789C43.4805 2.36593 43.4805 2.28994 43.6338 2.13798C43.7105 2.06199 43.8638 1.91003 44.0939 1.83405H44.1705C45.1673 1.30217 45.8574 1.07422 46.1641 1.07422C46.3174 1.07422 46.4708 1.1502 46.5474 1.30217C46.6241 1.45413 46.6241 1.75806 46.6241 2.28994V17.0306C46.6241 17.2585 46.6241 17.4105 46.7008 17.5625C46.7774 17.7144 46.8541 17.7904 46.9308 17.7904C47.0075 17.7904 47.0841 17.8664 47.3142 17.9424C47.7742 18.0944 48.0042 18.3223 48.0042 18.5503C48.0042 18.7022 47.9276 18.8542 47.7742 18.9302C47.6209 19.0062 47.3908 19.0061 47.0075 19.0061H44.4006C44.0939 19.0061 43.8638 19.0062 43.7105 18.9302C43.5571 18.8542 43.4805 18.7782 43.4805 18.6262C43.4805 18.4743 43.4805 18.3983 43.5571 18.3223C43.6338 18.2463 43.7872 18.1703 43.9405 18.0944C44.0172 18.0944 44.0939 18.0184 44.1705 17.9424C44.4772 17.7904 44.6306 17.5625 44.6306 17.1066V4.03755Z" fill="#231F20"/>
<path d="M39.1858 4.0354C39.1858 3.73147 39.1858 3.57951 39.1091 3.42754C39.0324 3.35156 38.9557 3.19959 38.8024 3.12361C38.7257 3.04763 38.6491 3.04763 38.4957 2.97165C38.1123 2.7437 37.959 2.59173 37.959 2.43977C37.959 2.2878 38.0357 2.21182 38.1123 2.05985C38.189 1.98387 38.3424 1.8319 38.5724 1.75592H38.649C39.6458 1.22404 40.3359 0.996094 40.6426 0.996094C40.7959 0.996094 40.9493 1.07208 41.0259 1.22404V2.21182V16.9525C41.0259 17.1804 41.0259 17.3324 41.1026 17.4844C41.1793 17.6363 41.256 17.7123 41.3326 17.7123C41.4093 17.7123 41.5627 17.7883 41.716 17.8643C42.1761 18.0162 42.4061 18.2442 42.4061 18.4721C42.4061 18.6241 42.3294 18.7761 42.1761 18.852C42.0227 18.928 41.7927 18.928 41.4093 18.928H38.8024C38.419 18.928 38.2657 18.928 38.1123 18.852C37.959 18.7761 37.959 18.7001 37.959 18.5481C37.959 18.3961 37.959 18.3202 38.0357 18.2442C38.1123 18.1682 38.2657 18.0922 38.419 18.0162C38.4957 18.0162 38.5724 17.9402 38.649 17.8643C38.9557 17.7123 39.1091 17.4844 39.1091 17.0285L39.1858 4.0354Z" fill="#231F20"/>
<path d="M36.3485 16.189C36.2719 16.113 36.1952 16.037 36.0418 16.037C35.8885 16.037 35.6585 16.189 35.2751 16.4929C34.9684 16.7209 34.7384 16.8728 34.5084 17.0248C34.125 17.2528 33.6649 17.4807 33.2049 17.5567C32.8215 17.7087 32.2848 17.7087 31.8248 17.7087C31.5947 17.7087 31.3647 17.7087 31.2114 17.6327C30.598 17.5567 29.9846 17.2528 29.5245 16.8728C28.8345 16.341 28.4511 15.5811 28.2211 14.6693C29.2945 14.5174 30.2913 14.4414 31.2114 14.2134C32.5148 13.9855 33.5883 13.6056 34.355 13.2257C35.6585 12.5418 36.3485 11.63 36.3485 10.4903C36.3485 9.50252 35.9652 8.74269 35.2751 8.21081C34.585 7.67893 33.5883 7.375 32.2081 7.375C31.8248 7.375 31.5181 7.375 31.2114 7.45098C29.9079 7.60295 28.8345 8.21081 27.8377 9.19859C26.6109 10.4143 26.0742 11.934 26.0742 13.7576C26.0742 15.4292 26.6109 16.7209 27.6077 17.7087C28.5278 18.6204 29.7546 19.1523 31.2114 19.2283H31.5947C32.1315 19.2283 32.6682 19.1523 33.2049 19.0004C33.7416 18.8484 34.2017 18.6964 34.6617 18.3925C35.1984 18.0886 35.6585 17.7087 35.9652 17.4047C36.2719 17.0248 36.5019 16.7969 36.5019 16.4929C36.5019 16.4169 36.4252 16.341 36.3485 16.189ZM28.0677 13.3776C28.0677 11.934 28.4511 10.7942 29.2179 9.88243C29.7546 9.19859 30.4446 8.81867 31.2114 8.59072C31.4414 8.51474 31.7481 8.51474 32.0548 8.51474C32.7449 8.51474 33.3582 8.66671 33.7416 9.04662C34.125 9.35055 34.355 9.80645 34.355 10.4143C34.355 11.3261 33.8183 12.0099 32.8215 12.4658C32.3615 12.6938 31.8248 12.8458 31.2114 13.0737C30.368 13.3017 29.2945 13.4536 28.0677 13.6056V13.3776Z" fill="#231F20"/>
<path d="M20.7835 17.4098V9.12764H20.0168C19.6334 9.12764 19.3267 9.05165 19.1734 8.97567C19.02 8.89969 18.9434 8.67174 18.9434 8.44379C18.9434 8.29183 19.02 8.13986 19.0967 7.9879C19.1734 7.91191 19.3267 7.83593 19.4801 7.75995H19.7868C20.3235 7.68396 20.6302 7.60798 20.7835 7.45602C20.9369 7.30405 21.0902 6.62021 21.2436 5.48046C21.2436 5.17653 21.3203 4.94859 21.3203 4.72064V4.34072C21.3969 3.5809 21.7036 3.125 22.087 3.125C22.2403 3.125 22.3937 3.20098 22.4704 3.27697C22.6237 3.50491 22.6237 3.80884 22.6237 4.41671V7.68396H24.3105C24.6939 7.68396 25.0006 7.75995 25.154 7.83593C25.3073 7.91191 25.384 8.13986 25.384 8.36781C25.384 8.59576 25.3073 8.74772 25.154 8.89969C25.0006 8.97567 24.6939 9.05165 24.3105 9.05165H22.6237V16.0421C22.6237 16.498 22.6237 16.8779 22.7004 17.0298C22.7771 17.2578 22.9304 17.4098 23.0838 17.4098C23.3138 17.4857 23.7738 17.5617 24.3872 17.5617C25.0006 17.5617 25.384 17.7897 25.384 18.0936C25.384 18.3215 25.3073 18.5495 25.154 18.6255C25.0006 18.7015 24.6172 18.7774 24.0038 18.7774H21.7036C21.2436 18.7774 21.0136 18.7015 20.8602 18.5495C20.8602 18.5495 20.7835 18.0936 20.7835 17.4098Z" fill="#231F20"/>
<path d="M7.29174 16.8728V11.4781C7.29174 10.7182 7.29174 10.1864 7.21507 10.0344C7.13839 9.80645 7.06172 9.65448 6.90837 9.50252C6.8317 9.42653 6.60167 9.35055 6.37165 9.19859C6.14163 9.1226 5.98828 8.97064 5.98828 8.74269C5.98828 8.51474 6.2183 8.28679 6.67835 7.90688C7.13839 7.52697 7.59844 7.375 7.90513 7.375C8.13515 7.375 8.2885 7.52697 8.51852 7.90688C8.67187 8.21081 8.82522 8.74269 8.97857 9.35055C9.51529 8.66671 10.052 8.21081 10.7421 7.90688C11.4321 7.60295 12.1222 7.375 12.8889 7.375C14.1924 7.375 15.2658 7.8309 15.8792 8.66671C16.5693 9.50252 16.876 10.8702 16.876 12.6178V16.8728C16.876 17.1008 16.876 17.3287 16.9527 17.4047C16.9527 17.5567 17.0293 17.5567 17.106 17.6327C17.1827 17.7087 17.2594 17.7846 17.4127 17.7846C17.7194 17.9366 17.8728 18.1645 17.8728 18.3165C17.8728 18.4685 17.7961 18.5445 17.7194 18.6204C17.5661 18.6964 17.336 18.6964 17.106 18.6964H14.6524C14.3457 18.6964 14.1157 18.6964 14.0391 18.6204C13.8857 18.5445 13.8857 18.4685 13.8857 18.3165C13.8857 18.0886 14.0391 17.9366 14.2691 17.8606C14.3457 17.8606 14.4224 17.7846 14.4224 17.7846C14.7291 17.6327 14.8825 17.5567 14.9591 17.4047C15.0358 17.3287 15.0358 17.1008 15.0358 16.7209V12.6938C15.0358 11.4021 14.8058 10.4143 14.3457 9.80645C13.8857 9.19859 13.1956 8.89465 12.1989 8.89465C11.2788 8.89465 10.512 9.19859 9.97533 9.65448C9.43861 10.1864 9.13192 10.8702 9.13192 11.782V17.1768V17.5567C9.13192 17.6327 9.20859 17.7087 9.28526 17.7087C9.36194 17.7846 9.43861 17.8606 9.66863 17.8606C9.97533 18.0126 10.1287 18.1646 10.1287 18.3925C10.1287 18.5445 10.052 18.6964 9.97533 18.7724C9.82198 18.8484 9.59196 18.8484 9.28526 18.8484H7.06172C6.75502 18.8484 6.525 18.8484 6.44833 18.7724C6.37165 18.6964 6.29498 18.6204 6.29498 18.4685C6.29498 18.3165 6.29498 18.2405 6.37165 18.1646C6.44833 18.0886 6.525 18.0126 6.75502 17.8606C6.75502 17.8606 6.8317 17.8606 6.90837 17.7846C7.13839 17.7087 7.29174 17.4047 7.29174 16.8728Z" fill="#231F20"/>
<path d="M1.38644 10.4143C1.38644 10.1104 1.38644 9.95841 1.30976 9.80645C1.23309 9.65448 1.15642 9.5785 0.926394 9.42653C0.84972 9.42653 0.773046 9.35055 0.619698 9.27457C0.313002 9.1226 0.236328 8.97064 0.236328 8.81867C0.236328 8.66671 0.236328 8.59072 0.389676 8.51474C0.46635 8.43876 0.619698 8.28679 0.84972 8.21081L0.926394 8.13483C1.84648 7.60295 2.53655 7.375 2.84324 7.375C2.99659 7.375 3.14994 7.45098 3.22661 7.60295C3.30329 7.75491 3.30329 8.05884 3.30329 8.66671V16.9488C3.30329 17.1768 3.30329 17.3287 3.37996 17.4807C3.45664 17.6327 3.53331 17.7087 3.60998 17.7087C3.76333 17.7846 3.84001 17.7846 3.99335 17.8606C4.37672 18.0126 4.60675 18.2405 4.60675 18.4685C4.60675 18.6204 4.53007 18.7724 4.37672 18.8484C4.22338 18.9244 3.99335 18.9244 3.60998 18.9244H1.07974C0.696372 18.9244 0.543024 18.9244 0.389676 18.8484C0.236328 18.7724 0.236328 18.6964 0.236328 18.5445C0.236328 18.3925 0.236328 18.3165 0.313002 18.2405C0.389676 18.0886 0.46635 18.0126 0.619698 17.9366C0.696372 17.9366 0.773046 17.8606 0.84972 17.7846C1.15642 17.6327 1.30976 17.4047 1.30976 16.9488L1.38644 10.4143Z" fill="#231F20"/>
<path d="M0.773437 3.96144C0.773437 3.50554 0.926785 3.20161 1.15681 2.97366C1.38683 2.74572 1.7702 2.59375 2.15357 2.59375C2.53694 2.59375 2.92031 2.74572 3.15033 2.97366C3.38035 3.27759 3.5337 3.58153 3.5337 3.96144C3.5337 4.34135 3.38035 4.72127 3.15033 4.94922C2.92031 5.17716 2.53694 5.32913 2.15357 5.32913C1.69353 5.32913 1.38683 5.17716 1.15681 4.94922C0.850112 4.72127 0.773437 4.41734 0.773437 3.96144Z" fill="#EA2227"/>
</svg>
