<svg width="21" height="22" viewBox="0 0 21 22" fill="none" xmlns="http://www.w3.org/2000/svg">
<path d="M19.9027 10.2487L10.9407 1.28668L10.072 0.417969L3.32568 7.16425L0.241195 10.2487C0.08675 10.4034 0 10.613 0 10.8315C0 11.0501 0.08675 11.2597 0.241195 11.4144L6.40467 17.5778L10.072 21.2451L16.8183 14.4988L16.9227 14.3944L19.9027 11.4144C20.0572 11.2597 20.1439 11.0501 20.1439 10.8315C20.1439 10.613 20.0572 10.4034 19.9027 10.2487ZM10.072 13.9105L6.99298 10.8315L10.072 7.75256L13.151 10.8315L10.072 13.9105Z" fill="#787885"/>
<path d="M10.0725 7.75321C9.10415 6.78471 8.5583 5.4724 8.55418 4.10282C8.55006 2.73324 9.088 1.41767 10.0505 0.443359L3.3125 7.17865L6.9798 10.8459L10.0725 7.75321Z" fill="url(#paint0_linear)"/>
<path d="M13.1575 10.8223L10.0703 13.9095C10.5521 14.391 10.9343 14.9627 11.195 15.5919C11.4558 16.2212 11.59 16.8957 11.59 17.5768C11.59 18.2579 11.4558 18.9324 11.195 19.5616C10.9343 20.1909 10.5521 20.7626 10.0703 21.2441L16.8248 14.4896L13.1575 10.8223Z" fill="url(#paint1_linear)"/>
<defs>
<linearGradient id="paint0_linear" x1="9.52271" y1="4.63848" x2="3.5" y2="10.5" gradientUnits="userSpaceOnUse">
<stop offset="0.18" stop-color="#787885"/>
<stop offset="1" stop-color="white"/>
</linearGradient>
<linearGradient id="paint1_linear" x1="272.011" y1="639.05" x2="420.51" y2="542.806" gradientUnits="userSpaceOnUse">
<stop offset="0.18" stop-color="#787885"/>
<stop offset="1" stop-color="#E1E1E3"/>
</linearGradient>
</defs>
</svg>
