<svg width="16" height="18" viewBox="0 0 16 18" fill="none" xmlns="http://www.w3.org/2000/svg">
<g opacity="0.2">
<path d="M15.8084 8.33186L8.69001 1.21344L8 0.523438L2.64154 5.8819L0.191577 8.33186C0.0689041 8.45469 0 8.62118 0 8.79478C0 8.96837 0.0689041 9.13487 0.191577 9.25769L5.08713 14.1532L8 17.0661L13.3585 11.7076L13.4414 11.6247L15.8084 9.25769C15.9311 9.13487 16 8.96837 16 8.79478C16 8.62118 15.9311 8.45469 15.8084 8.33186V8.33186ZM8 11.2404L5.55441 8.79478L8 6.34918L10.4456 8.79478L8 11.2404Z" fill="#2684FF"/>
<path d="M8.00024 6.34906C7.23107 5.5798 6.79751 4.53745 6.79424 3.44962C6.79097 2.36179 7.21824 1.31685 7.98277 0.542969L2.63086 5.8927L5.54373 8.80557L8.00024 6.34906Z" fill="url(#paint0_linear)"/>
<path d="M10.4521 8.78906L8 11.2412C8.38267 11.6236 8.68623 12.0777 8.89335 12.5775C9.10046 13.0773 9.20706 13.6131 9.20706 14.1541C9.20706 14.6951 9.10046 15.2308 8.89335 15.7306C8.68623 16.2304 8.38267 16.6845 8 17.067V17.067L13.365 11.7019L10.4521 8.78906Z" fill="url(#paint1_linear)"/>
</g>
<defs>
<linearGradient id="paint0_linear" x1="7.56353" y1="3.87509" x2="4.14844" y2="7.29018" gradientUnits="userSpaceOnUse">
<stop offset="0.18" stop-color="#0052CC"/>
<stop offset="1" stop-color="#2684FF"/>
</linearGradient>
<linearGradient id="paint1_linear" x1="216.055" y1="507.78" x2="334.006" y2="431.335" gradientUnits="userSpaceOnUse">
<stop offset="0.18" stop-color="#0052CC"/>
<stop offset="1" stop-color="#2684FF"/>
</linearGradient>
</defs>
</svg>
