<svg width="111" height="112" viewBox="0 0 111 112" fill="none" xmlns="http://www.w3.org/2000/svg">
<path d="M55.4993 110.999C86.1507 110.999 110.999 86.1507 110.999 55.4993C110.999 24.8479 86.1507 0 55.4993 0C24.8479 0 0 24.8479 0 55.4993C0 86.1507 24.8479 110.999 55.4993 110.999Z" fill="#7985CB"/>
<path d="M90.1478 31.9727H20.7184L45.8707 58.1627L53.1289 65.512C49.1798 64.6093 48.9355 64.0467 47.1855 62.618C46.2676 61.8686 44.4942 59.8318 41.8008 57.0811C33.3933 48.4958 19.127 33.9277 19.127 33.9277V77.0311L20.9188 78.8229L20.7182 79.0317L52.6136 110.927C53.5701 110.976 54.5327 111.001 55.5013 111.001C86.1527 111.001 111.001 86.1536 111.001 55.5022C111.001 54.5817 110.977 53.6668 110.933 52.7574L90.1478 31.9727Z" fill="#5C6BC0"/>
<path d="M19.127 33.9219V77.0253L40.1469 55.3864L19.127 33.9219Z" fill="white"/>
<path d="M91.8764 33.9219V77.0253L70.9609 55.4736L91.8764 33.9219Z" fill="white"/>
<path d="M20.7188 31.9688H90.1481L62.8614 60.3813C60.9193 62.4034 58.2369 63.5463 55.4336 63.5463C52.6302 63.5463 49.9478 62.4034 48.0058 60.3813L20.7188 31.9688Z" fill="white"/>
<path d="M64.4355 61.8933C62.0943 64.331 58.8134 65.7293 55.4336 65.7293C52.054 65.7293 48.7728 64.3314 46.4318 61.8936L41.8035 57.0742L20.7188 79.0283H90.1481L69.0636 57.0742L64.4355 61.8933Z" fill="white"/>
</svg>
