<svg width="617" height="345" viewBox="0 0 617 345" fill="none" xmlns="http://www.w3.org/2000/svg">
<g clip-path="url(#clip0)">
<path d="M617 0H0V345H617V0Z" fill="white"/>
<path d="M506.064 151.889C506.064 151.889 505.941 152.012 506.064 151.889V151.889ZM507.669 150.403C506.064 148.794 504.09 147.308 501.869 146.689C499.648 146.07 497.056 146.318 495.205 147.556C498.043 150.527 502.116 152.136 506.064 151.889C506.681 151.889 508.409 152.012 508.903 151.641C509.026 151.517 508.656 151.146 508.286 150.774C508.162 150.774 507.792 150.527 507.669 150.403Z" fill="#00C671"/>
<g opacity="0.2">
<path opacity="0.2" d="M508.286 150.899C508.162 150.776 507.792 150.528 507.669 150.404C506.064 148.795 504.09 147.31 501.869 146.691C500.758 146.443 499.648 146.319 498.537 146.443C499.771 146.443 501.128 146.814 502.239 147.433C504.213 148.424 505.818 150.157 507.175 152.014C507.792 152.014 508.656 151.89 508.903 151.766C509.026 151.642 508.656 151.147 508.286 150.899Z" fill="#191C3C"/>
</g>
<path d="M509.52 146.94C509.89 147.93 510.26 149.292 509.89 150.158C509.643 150.901 509.026 151.891 508.286 151.768C507.669 151.025 506.435 149.416 505.695 148.797C505.078 148.302 504.09 147.683 503.473 147.187C501.869 145.826 501.376 143.845 500.512 141.988C502.116 142.112 503.597 142.483 505.201 142.855C506.188 143.102 507.175 143.474 507.916 144.216C508.78 144.835 509.273 145.826 509.52 146.94Z" fill="#00C671"/>
<path opacity="0.08" d="M506.187 148.795C505.693 148.177 504.706 147.434 504.212 146.815C503.102 145.453 502.731 143.844 502.361 142.111C501.744 141.987 501.127 141.863 500.387 141.863C501.251 143.844 501.868 145.701 503.348 147.062C503.965 147.681 504.953 148.177 505.57 148.672C505.94 148.919 506.433 149.538 506.804 150.033C506.804 149.538 506.433 149.043 506.187 148.795Z" fill="#F5F7F9"/>
<path d="M510.384 141.863C510.878 143.348 510.878 144.834 510.878 146.443C510.878 147.062 511.001 148.052 510.878 148.547C510.754 149.043 510.508 149.538 510.137 149.909C509.891 150.28 509.644 149.785 509.397 149.538C509.15 149.166 508.78 148.671 509.027 148.795C508.78 147.928 508.657 147.309 508.41 146.443C508.163 145.7 507.916 145.081 507.793 144.339C507.546 142.606 507.793 140.749 508.163 139.016C509.15 139.758 509.891 140.749 510.384 141.863Z" fill="#00C671"/>
<path d="M496.316 147.803C498.291 147.679 500.265 147.803 502.24 148.298C504.091 148.793 505.695 149.66 507.299 150.898C507.422 151.021 507.422 150.774 507.422 150.774C505.942 149.66 504.214 148.793 502.363 148.298C500.265 147.679 498.291 147.679 496.316 147.803Z" fill="#1E2022"/>
<path d="M501.127 142.48C502.731 143.223 504.212 144.214 505.446 145.451C506.803 146.813 507.791 148.422 508.778 150.032H508.901C507.174 146.689 504.706 143.966 501.127 142.48Z" fill="#1E2022"/>
<path d="M508.285 139.637C509.396 142.731 510.63 145.826 509.889 149.168C509.889 149.292 510.013 149.292 510.013 149.168C510.63 145.95 509.643 142.608 508.285 139.637Z" fill="#1E2022"/>
<path d="M497.795 149.044C498.042 148.796 498.165 148.549 498.412 148.425C498.659 148.177 498.906 148.053 499.152 147.93C498.659 148.053 498.042 148.425 497.795 149.044Z" fill="#1E2022"/>
<path d="M499.4 149.785C500.017 148.795 500.758 148.423 501.868 148.3C501.992 148.3 501.992 148.176 501.868 148.176C500.881 148.3 499.771 148.671 499.4 149.785Z" fill="#1E2022"/>
<path d="M501.377 149.909C501.994 149.414 502.611 148.671 503.598 148.919C503.598 148.919 503.722 148.795 503.598 148.795C502.734 148.547 501.994 149.29 501.377 149.909Z" fill="#1E2022"/>
<path d="M503.35 151.023C503.967 150.28 504.83 149.537 505.818 150.032C505.941 150.032 505.941 149.909 505.818 149.909C504.954 149.413 503.843 150.032 503.35 151.023Z" fill="#1E2022"/>
<path d="M498.783 146.566C498.907 147.185 499.524 147.557 500.017 147.928C500.017 147.928 500.141 147.928 500.017 147.804C499.524 147.557 499.03 147.185 498.783 146.566Z" fill="#1E2022"/>
<path d="M500.881 146.691C501.128 147.31 501.498 147.806 501.991 148.301C501.991 148.301 502.115 148.301 502.115 148.177C501.621 147.806 501.251 147.31 500.881 146.691Z" fill="#1E2022"/>
<path d="M502.732 147.434C502.856 147.681 502.979 148.053 503.226 148.3C503.349 148.548 503.596 148.795 503.843 148.919C503.843 148.919 503.843 148.919 503.966 148.919V148.795C503.966 148.795 503.966 148.795 503.843 148.795C503.843 148.795 503.843 148.795 503.843 148.919C503.966 148.919 503.596 148.548 503.596 148.548C503.473 148.424 503.473 148.3 503.349 148.3C503.103 147.929 502.856 147.681 502.732 147.434Z" fill="#1E2022"/>
<path d="M504.213 148.176C504.583 148.795 505.2 149.414 505.817 149.909C505.94 150.033 505.94 149.909 505.94 149.785C505.323 149.29 504.83 148.671 504.213 148.176Z" fill="#1E2022"/>
<path d="M502.115 144.585C503.226 144.461 504.213 144.585 505.2 145.204C505.324 145.204 505.324 145.08 505.324 145.08C504.336 144.461 503.102 144.213 502.115 144.585Z" fill="#1E2022"/>
<path d="M503.842 146.443C504.335 146.443 504.952 146.443 505.446 146.567C505.94 146.691 506.433 146.815 506.803 147.062C506.927 147.062 506.927 146.939 506.803 146.939C505.94 146.567 504.829 146.196 503.842 146.443Z" fill="#1E2022"/>
<path d="M505.941 148.051C506.312 148.051 506.682 148.175 507.052 148.175C507.422 148.298 507.792 148.422 508.039 148.794C508.039 148.794 508.163 148.794 508.163 148.67C507.916 148.422 507.669 148.175 507.175 148.051C506.805 148.051 506.312 148.051 505.941 148.051Z" fill="#1E2022"/>
<path d="M504.461 143.347C504.461 143.718 504.708 144.213 504.831 144.585C504.955 144.832 505.078 145.204 505.325 145.327C504.831 144.708 504.831 143.842 504.461 143.347C504.461 143.223 504.461 143.223 504.461 143.347Z" fill="#1E2022"/>
<path d="M506.064 143.843C506.188 144.957 506.558 146.071 506.928 147.061H507.052C506.558 145.947 506.435 144.833 506.064 143.843C506.064 143.719 506.064 143.719 506.064 143.843Z" fill="#1E2022"/>
<path d="M507.916 146.194C507.916 147.185 508.163 148.175 508.287 149.042C508.287 149.165 508.411 149.042 508.411 149.042C508.163 148.051 508.04 147.061 507.916 146.194C507.916 146.071 507.916 146.071 507.916 146.194Z" fill="#1E2022"/>
<path d="M507.916 141.491C508.533 142.234 509.15 143.101 509.52 143.967C509.52 144.091 509.644 143.967 509.644 143.843C509.273 142.977 508.656 142.11 507.916 141.491C507.916 141.367 507.916 141.367 507.916 141.491Z" fill="#1E2022"/>
<path d="M510.139 141.613C509.768 142.356 509.768 143.223 509.768 144.089C509.768 144.213 509.891 144.213 509.891 144.089C509.891 143.594 510.015 143.223 510.015 142.727C510.015 142.356 510.139 141.985 510.139 141.613Z" fill="#1E2022"/>
<path d="M508.902 144.34C509.396 145.083 509.766 145.949 510.013 146.816C510.013 145.826 509.519 144.959 508.902 144.34C508.902 144.34 508.902 144.216 508.902 144.34Z" fill="#1E2022"/>
<path d="M510.135 146.813C510.382 146.194 510.505 145.699 510.875 145.203C510.875 145.203 510.875 145.08 510.752 145.203C510.505 145.575 510.135 146.194 510.135 146.813Z" fill="#1E2022"/>
<path d="M0 283.23C0 283.23 79.593 237.057 182.015 261.815C284.437 286.573 339.35 236.438 376.37 214.775C413.39 193.112 534.939 99.4036 617 158.327V344.877H0V283.23Z" fill="#D4DBE3"/>
<path d="M145.736 222.2C145.982 222.324 145.736 222.2 145.736 222.2V222.2ZM144.131 221.333C143.885 221.581 143.514 221.952 143.638 221.952C144.008 222.2 145.242 222.2 145.736 222.076C148.821 222.2 151.906 220.962 154.003 218.734C152.523 217.744 150.672 217.62 148.944 218.115C147.216 218.61 145.736 219.724 144.502 220.962C144.502 221.086 144.255 221.333 144.131 221.333Z" fill="#00C9A7"/>
<g opacity="0.2">
<path opacity="0.2" d="M144.131 221.335C144.255 221.211 144.502 221.087 144.625 220.964C145.859 219.726 147.34 218.612 149.067 218.116C149.931 217.869 150.795 217.745 151.535 217.869C150.548 217.869 149.561 218.116 148.697 218.612C147.216 219.354 145.982 220.716 144.995 222.078C144.502 222.078 143.885 222.078 143.638 221.954C143.514 221.954 143.885 221.706 144.131 221.335Z" fill="#191C3C"/>
</g>
<path d="M144.376 216.258C144.993 215.763 145.733 215.515 146.474 215.267C147.584 214.896 148.818 214.648 150.052 214.648C149.435 216.134 148.942 217.496 147.831 218.61C147.338 218.981 146.597 219.476 146.104 219.848C145.487 220.343 144.623 221.581 144.129 222.076C143.636 222.2 143.142 221.457 142.895 220.838C142.648 220.095 142.895 219.105 143.142 218.362C143.389 217.619 143.759 216.877 144.376 216.258Z" fill="#00C9A7"/>
<path opacity="0.08" d="M145.734 219.848C146.104 219.352 146.845 218.857 147.215 218.362C148.079 217.372 148.326 216.134 148.572 214.896C149.066 214.772 149.56 214.772 150.053 214.648C149.436 216.134 148.943 217.496 147.832 218.61C147.338 218.981 146.598 219.476 146.104 219.848C145.858 220.095 145.487 220.467 145.117 220.838C145.241 220.467 145.487 219.971 145.734 219.848Z" fill="#F5F7F9"/>
<path d="M144.254 212.297C144.501 213.659 144.748 215.02 144.501 216.382C144.378 216.877 144.254 217.496 144.007 217.991C143.761 218.734 143.761 219.105 143.514 219.724C143.637 219.6 143.39 220.096 143.267 220.343C143.144 220.591 142.897 220.962 142.65 220.591C142.403 220.343 142.156 219.972 142.156 219.6C142.033 219.229 142.156 218.486 142.156 217.991C142.156 216.877 142.156 215.639 142.527 214.525C142.897 213.659 143.514 212.916 144.254 212.297Z" fill="#00C9A7"/>
<path d="M153.138 219.105C151.657 219.105 150.176 219.105 148.695 219.477C147.338 219.848 145.98 220.591 144.87 221.457C144.746 221.457 144.746 221.457 144.87 221.333C145.98 220.467 147.338 219.848 148.695 219.353C150.176 218.981 151.657 218.981 153.138 219.105C153.261 219.105 153.261 219.105 153.138 219.105Z" fill="#191C3C"/>
<path d="M149.56 215.02C148.326 215.638 147.215 216.381 146.228 217.372C145.241 218.362 144.501 219.6 143.637 220.838C143.637 220.838 143.513 220.838 143.637 220.838C144.994 218.238 146.845 216.134 149.56 215.02Z" fill="#191C3C"/>
<path d="M144.133 212.918C143.393 215.27 142.405 217.622 142.899 220.098C142.899 220.098 142.776 220.222 142.776 220.098C142.405 217.746 143.022 215.022 144.133 212.918Z" fill="#191C3C"/>
<path d="M152.152 219.972C152.028 219.848 151.781 219.601 151.658 219.477C151.411 219.353 151.288 219.229 151.041 219.105C151.411 219.229 151.905 219.601 152.152 219.972Z" fill="#191C3C"/>
<path d="M150.918 220.589C150.547 219.847 149.93 219.599 149.067 219.475C148.943 219.475 149.067 219.352 149.067 219.352C149.807 219.475 150.547 219.723 150.918 220.589Z" fill="#191C3C"/>
<path d="M149.312 220.715C148.818 220.344 148.324 219.725 147.584 219.973C148.324 219.601 148.941 220.22 149.312 220.715C149.312 220.715 149.435 220.715 149.312 220.715Z" fill="#191C3C"/>
<path d="M147.832 221.459C147.338 220.84 146.721 220.345 145.981 220.716C145.981 220.716 145.857 220.716 145.981 220.592C146.721 220.345 147.461 220.84 147.832 221.459Z" fill="#191C3C"/>
<path d="M151.288 218.113C151.164 218.608 150.794 218.856 150.424 219.104C150.794 218.856 151.164 218.608 151.288 218.113Z" fill="#191C3C"/>
<path d="M149.684 218.238C149.561 218.733 149.191 219.105 148.82 219.476C148.82 219.476 148.697 219.476 148.82 219.476C149.191 219.105 149.437 218.733 149.684 218.238Z" fill="#191C3C"/>
<path d="M148.327 218.734C148.203 218.982 148.08 219.106 147.956 219.353C147.833 219.477 147.71 219.725 147.463 219.849C147.463 219.849 147.463 219.849 147.463 219.725C147.463 219.725 147.71 219.477 147.586 219.477C147.71 219.353 147.71 219.353 147.833 219.23C148.203 219.23 148.327 218.982 148.327 218.734Z" fill="#191C3C"/>
<path d="M147.217 219.352C146.97 219.847 146.476 220.342 145.983 220.713C145.983 220.713 145.859 220.713 145.859 220.589C146.353 220.218 146.847 219.847 147.217 219.352Z" fill="#191C3C"/>
<path d="M148.821 216.631C147.958 216.631 147.217 216.631 146.477 217.126C146.477 217.126 146.353 217.126 146.477 217.002C147.094 216.631 148.081 216.383 148.821 216.631Z" fill="#191C3C"/>
<path d="M147.464 217.99C147.094 217.99 146.723 217.99 146.23 218.114C145.86 218.238 145.489 218.361 145.119 218.485C145.119 218.485 144.996 218.485 145.119 218.361C145.983 218.114 146.723 217.866 147.464 217.99Z" fill="#191C3C"/>
<path d="M145.858 219.352C145.611 219.352 145.241 219.352 144.994 219.476C144.624 219.599 144.501 219.723 144.254 219.971C144.254 219.971 144.131 219.971 144.254 219.971C144.501 219.723 144.624 219.599 144.994 219.476C145.365 219.352 145.611 219.228 145.858 219.352C145.982 219.352 145.982 219.228 145.858 219.352Z" fill="#191C3C"/>
<path d="M147.095 215.641C147.095 215.888 146.971 216.26 146.848 216.507C146.724 216.631 146.724 217.002 146.477 217.002C146.724 216.631 146.724 216.012 147.095 215.641Z" fill="#191C3C"/>
<path d="M145.735 216.012C145.611 216.878 145.364 217.745 145.118 218.488H144.994C145.364 217.745 145.611 216.878 145.735 216.012C145.858 216.012 145.735 216.012 145.735 216.012Z" fill="#191C3C"/>
<path d="M144.379 217.866C144.379 218.609 144.132 219.352 144.132 219.971H144.008C144.132 219.228 144.255 218.485 144.379 217.866C144.379 217.742 144.379 217.742 144.379 217.866Z" fill="#191C3C"/>
<path d="M144.377 214.276C143.883 214.895 143.513 215.514 143.143 216.133H143.02C143.39 215.391 143.76 214.772 144.377 214.276C144.377 214.153 144.377 214.153 144.377 214.276Z" fill="#191C3C"/>
<path d="M142.773 214.402C143.021 214.897 143.021 215.64 143.145 216.259H143.021C143.021 215.888 143.021 215.516 142.897 215.269C142.773 214.897 142.773 214.65 142.773 214.402Z" fill="#191C3C"/>
<path d="M143.637 216.383C143.267 217.002 143.02 217.621 142.773 218.24C142.897 217.621 143.267 216.878 143.637 216.383Z" fill="#191C3C"/>
<path d="M142.776 218.238C142.652 217.867 142.529 217.371 142.281 217C142.529 217.371 142.652 217.867 142.776 218.238C142.776 218.362 142.776 218.362 142.776 218.238Z" fill="#191C3C"/>
<path d="M138.949 222.2C138.949 222.2 138.825 222.324 138.949 222.2V222.2ZM140.183 220.963C138.949 219.601 137.344 218.487 135.617 217.992C133.889 217.496 131.791 217.62 130.311 218.734C132.532 221.086 135.74 222.324 138.949 222.2C139.442 222.2 140.8 222.2 141.17 222.077C141.293 221.953 140.923 221.705 140.676 221.334C140.676 221.21 140.306 221.086 140.183 220.963Z" fill="#00C9A7"/>
<g opacity="0.2">
<path opacity="0.2" d="M140.676 221.334C140.553 221.21 140.306 221.086 140.183 220.962C138.949 219.601 137.344 218.487 135.617 217.991C134.753 217.744 133.889 217.62 133.025 217.744C134.013 217.744 135 217.991 135.987 218.487C137.591 219.353 138.825 220.591 139.812 222.2C140.306 222.2 140.923 222.2 141.17 221.953C141.293 221.953 140.923 221.581 140.676 221.334Z" fill="#191C3C"/>
</g>
<path d="M141.788 218.24C142.035 218.983 142.405 220.097 142.035 220.839C141.788 221.458 141.294 222.201 140.801 222.077C140.307 221.458 139.32 220.22 138.703 219.725C138.209 219.354 137.469 218.859 136.975 218.487C135.741 217.373 135.248 215.888 134.631 214.402C135.865 214.526 137.099 214.774 138.333 215.145C139.073 215.393 139.937 215.64 140.554 216.259C141.048 216.631 141.418 217.373 141.788 218.24Z" fill="#00C9A7"/>
<path opacity="0.08" d="M139.073 219.723C138.703 219.228 137.963 218.609 137.592 218.114C136.729 216.999 136.482 215.762 136.112 214.4C135.618 214.276 135.124 214.276 134.631 214.152C135.371 215.638 135.741 217.123 136.975 218.237C137.469 218.733 138.209 219.104 138.703 219.475C138.95 219.723 139.32 220.094 139.69 220.589C139.567 220.342 139.32 219.97 139.073 219.723Z" fill="#F5F7F9"/>
<path d="M142.403 214.278C142.773 215.392 142.773 216.63 142.773 217.868C142.773 218.363 142.897 219.106 142.773 219.601C142.65 219.972 142.403 220.343 142.156 220.591C141.91 220.839 141.786 220.591 141.539 220.22C141.416 219.972 141.046 219.477 141.293 219.601C141.046 218.858 140.922 218.487 140.799 217.744C140.552 217.249 140.429 216.63 140.305 216.135C140.059 214.773 140.305 213.287 140.552 211.926C141.416 212.545 142.033 213.287 142.403 214.278Z" fill="#00C9A7"/>
<path d="M131.297 218.98C132.901 218.98 134.382 218.98 135.986 219.352C137.467 219.723 138.824 220.466 139.935 221.332C140.058 221.332 140.058 221.332 140.058 221.208C138.824 220.342 137.467 219.599 136.109 219.228C134.382 218.857 132.901 218.856 131.297 218.98Z" fill="#191C3C"/>
<path d="M135.123 214.774C136.357 215.393 137.591 216.135 138.578 217.126C139.689 218.24 140.429 219.478 141.17 220.716C141.17 220.716 141.293 220.716 141.17 220.716C139.812 218.116 137.838 215.888 135.123 214.774C135.123 214.774 135.123 214.65 135.123 214.774Z" fill="#191C3C"/>
<path d="M140.678 212.547C141.542 215.023 142.529 217.375 141.912 220.098C141.912 220.098 142.035 220.222 142.035 220.098C142.529 217.499 141.788 214.775 140.678 212.547C140.678 212.547 140.678 212.423 140.678 212.547Z" fill="#191C3C"/>
<path d="M132.408 219.847C132.532 219.723 132.778 219.476 132.902 219.352C133.149 219.228 133.272 219.104 133.519 218.98C133.149 219.104 132.655 219.476 132.408 219.847Z" fill="#191C3C"/>
<path d="M133.643 220.468C134.136 219.726 134.753 219.478 135.617 219.354C135.74 219.354 135.617 219.23 135.617 219.23C134.877 219.354 134.013 219.602 133.643 220.468Z" fill="#191C3C"/>
<path d="M135.246 220.589C135.74 220.218 136.233 219.599 136.974 219.722C136.357 219.599 135.74 220.094 135.246 220.589Z" fill="#191C3C"/>
<path d="M136.85 221.458C137.343 220.839 137.96 220.344 138.824 220.715C138.824 220.715 138.947 220.715 138.824 220.591C138.084 220.22 137.22 220.715 136.85 221.458Z" fill="#191C3C"/>
<path d="M133.148 217.992C133.272 218.487 133.642 218.859 134.136 219.106C133.765 218.735 133.395 218.487 133.148 217.992C133.148 217.992 133.272 217.992 133.148 217.992Z" fill="#191C3C"/>
<path d="M134.877 218.117C135.124 218.612 135.371 218.984 135.741 219.355C135.741 219.355 135.864 219.355 135.741 219.355C135.371 218.984 135.124 218.489 134.877 218.117Z" fill="#191C3C"/>
<path d="M136.357 218.609C136.481 218.857 136.604 219.105 136.728 219.228C136.851 219.352 136.974 219.6 137.221 219.723C137.221 219.723 137.221 219.723 137.221 219.6C137.345 219.6 136.974 219.352 136.974 219.352C136.851 219.228 136.851 219.228 136.728 219.105C136.604 218.981 136.481 218.857 136.357 218.609Z" fill="#191C3C"/>
<path d="M137.469 219.23C137.716 219.726 138.209 220.221 138.703 220.592C138.703 220.592 138.826 220.592 138.826 220.468C138.333 220.097 137.962 219.726 137.469 219.23Z" fill="#191C3C"/>
<path d="M135.863 216.38C136.727 216.38 137.467 216.38 138.331 216.876C138.331 216.876 138.455 216.876 138.331 216.752C137.591 216.38 136.604 216.009 135.863 216.38Z" fill="#191C3C"/>
<path d="M137.221 217.867C137.591 217.867 138.084 217.867 138.455 217.991C138.825 218.114 139.195 218.238 139.565 218.362C139.565 218.362 139.689 218.362 139.565 218.238C138.825 217.991 137.961 217.619 137.221 217.867Z" fill="#191C3C"/>
<path d="M138.826 219.23C139.073 219.23 139.443 219.23 139.69 219.353C140.06 219.477 140.307 219.601 140.43 219.848C140.43 219.848 140.554 219.848 140.554 219.725C140.307 219.477 140.184 219.353 139.813 219.23C139.567 219.106 139.196 219.106 138.826 219.23C138.826 219.23 138.826 219.106 138.826 219.23Z" fill="#191C3C"/>
<path d="M137.592 215.391C137.592 215.762 137.839 216.01 137.839 216.381C137.963 216.629 137.963 216.876 138.21 216.876C137.963 216.505 137.963 215.762 137.592 215.391C137.592 215.391 137.716 215.391 137.592 215.391Z" fill="#191C3C"/>
<path d="M138.947 215.762C139.071 216.628 139.317 217.495 139.564 218.361H139.688C139.441 217.495 139.194 216.628 138.947 215.762Z" fill="#191C3C"/>
<path d="M140.43 217.621C140.43 218.364 140.677 219.107 140.677 219.849H140.801C140.677 219.107 140.553 218.364 140.43 217.621Z" fill="#191C3C"/>
<path d="M140.43 213.907C140.923 214.526 141.417 215.144 141.664 215.887H141.787C141.54 215.144 141.047 214.402 140.43 213.907C140.43 213.907 140.43 213.783 140.43 213.907Z" fill="#191C3C"/>
<path d="M142.156 214.031C141.909 214.65 141.909 215.269 141.785 215.888H141.909C141.909 215.517 141.909 215.145 142.033 214.774C142.033 214.65 142.156 214.279 142.156 214.031Z" fill="#191C3C"/>
<path d="M141.17 216.133C141.54 216.752 141.787 217.371 142.034 217.99C142.034 217.371 141.664 216.628 141.17 216.133Z" fill="#191C3C"/>
<path d="M142.156 218.117C142.28 217.622 142.404 217.251 142.775 216.879C142.775 216.879 142.775 216.755 142.775 216.879C142.404 217.251 142.156 217.622 142.156 218.117Z" fill="#191C3C"/>
<path fill-rule="evenodd" clip-rule="evenodd" d="M574.799 191.649C574.75 191.649 574.676 191.672 574.575 191.774L574.428 191.627L574.575 191.774L571.737 194.621L571.443 194.328L574.282 191.481L574.412 191.611L574.282 191.481C574.427 191.335 574.601 191.234 574.799 191.234C574.997 191.234 575.17 191.335 575.315 191.481L575.169 191.627L575.315 191.481L576.796 192.966C578.083 194.258 578.593 196.187 578.21 197.984L578.207 197.995L578.207 197.995L577.466 200.718L577.066 200.61L577.805 197.892C578.16 196.224 577.682 194.442 576.503 193.259L576.649 193.113L576.503 193.259L575.022 191.774C574.921 191.672 574.847 191.649 574.799 191.649Z" fill="#191C3C"/>
<path d="M559.866 204.501L559.619 206.729L557.521 207.1L558.015 203.387L559.866 204.501Z" fill="#7783A0"/>
<path d="M573.685 205.862L573.192 208.956L559.494 206.728L559.864 204.5L573.685 205.862Z" fill="#7783A0"/>
<path d="M559.618 205.988L559.494 206.731L573.192 208.959L573.315 208.34L559.618 205.988Z" fill="#3A3C4E"/>
<path d="M570.858 193.21L563.23 200.789L572.956 210.64L580.584 203.061L570.858 193.21Z" fill="#7783A0"/>
<path d="M572.626 194.929L564.998 202.508L565.259 202.772L572.886 195.193L572.626 194.929Z" fill="#191C3C"/>
<path d="M573.509 195.843L565.881 203.422L566.141 203.686L573.769 196.107L573.509 195.843Z" fill="#191C3C"/>
<path d="M601.553 220.333L598.316 222.137L601.373 227.656L604.609 225.852L601.553 220.333Z" fill="#FEC55E"/>
<path d="M591.209 190.883V211.679L599.23 224.058L602.809 222.325L596.392 208.089L598.119 193.359L591.209 190.883Z" fill="#DB3F32"/>
<path d="M592.812 222.574H588.74V228.887H592.812V222.574Z" fill="#FEC55E"/>
<path opacity="0.3" d="M595.405 207.597L597.009 203.017L598.119 193.361L591.949 191.133L591.209 196.58V211.682L594.541 216.757L595.405 207.597Z" fill="#191C3C"/>
<path d="M600.341 185.066L600.711 185.685C600.958 186.304 601.081 186.923 601.081 187.542L600.958 191.627C600.834 193.36 600.341 195.217 599.354 196.703L597.009 200.416L594.541 207.596L593.06 223.317H588.371L589.358 208.091L589.112 207.348C588.865 206.606 588.865 205.863 588.988 205.12L591.086 190.884L589.605 186.923L600.341 185.066Z" fill="#DE4437"/>
<path d="M578.498 167.488C578.498 166.869 578.498 166.25 578.251 165.631C577.881 165.012 577.264 164.517 576.647 164.146C575.166 163.279 573.315 162.784 571.588 162.66V162.784C571.464 163.774 571.958 164.641 572.328 165.631C573.192 167.488 573.932 169.592 573.809 171.697C573.685 173.677 572.698 175.41 571.711 177.02C572.205 176.401 572.822 175.782 573.562 175.163C573.192 176.401 572.698 177.515 572.081 178.629C573.439 177.886 574.179 176.401 574.919 175.039C574.796 176.277 574.549 177.391 573.932 178.505C574.919 177.391 575.66 176.153 576.277 174.791C576.4 175.782 576.153 176.896 575.66 177.762C576.647 176.401 577.634 175.039 578.128 173.43C578.498 171.449 578.498 169.469 578.498 167.488Z" fill="#FEC55E"/>
<path opacity="0.3" d="M578.498 167.488C578.498 166.869 578.498 166.25 578.251 165.631C577.881 165.012 577.264 164.517 576.647 164.146C575.166 163.279 573.315 162.784 571.588 162.66V162.784C571.464 163.774 571.958 164.641 572.328 165.631C572.945 167.117 573.685 168.726 573.809 170.335C574.549 170.954 575.783 170.83 576.4 169.964L576.77 169.469L578.498 170.211C578.498 169.221 578.498 168.354 578.498 167.488Z" fill="#191C3C"/>
<path d="M577.336 164.919L575.938 168.223L579.572 169.771L580.971 166.467L577.336 164.919Z" fill="#FEC55E"/>
<path opacity="0.3" d="M578.621 165.258L577.511 168.848L575.783 168.229L577.264 164.887L578.621 165.258Z" fill="#191C3C"/>
<path d="M569.244 163.156L570.848 165.88L571.219 166.251V168.108H572.206L573.563 169.346C574.304 170.088 575.661 169.965 576.278 169.098L579.24 164.765L577.142 159.814C577.142 159.814 570.725 157.709 569.244 163.156Z" fill="#FEC55E"/>
<path d="M569.119 163.279C568.996 163.156 568.996 163.156 568.996 163.156L569.119 163.279Z" fill="url(#paint0_linear)"/>
<path d="M569.492 163.649L569.121 163.277C569.245 163.401 569.368 163.525 569.492 163.649Z" fill="url(#paint1_linear)"/>
<path d="M586.766 165.012C585.656 164.145 583.928 164.145 583.188 162.907C583.064 162.66 582.941 162.288 582.694 162.041C582.077 161.422 580.967 161.546 580.35 160.803C580.103 160.432 580.103 160.06 579.979 159.689C579.733 159.07 579.362 158.575 578.869 158.203C578.499 157.956 578.005 157.708 577.511 157.585C577.018 157.337 576.524 157.213 576.031 156.966C575.537 156.718 575.043 156.594 574.55 156.47C573.809 156.347 573.069 156.594 572.452 156.842C572.082 156.966 571.712 157.089 571.465 157.213C570.478 157.832 569.984 158.946 569.614 159.937C569.244 160.679 568.873 161.546 568.997 162.412C568.997 162.66 569.12 162.907 569.244 163.031C569.861 163.526 570.724 163.403 571.465 163.279C572.205 163.155 573.069 162.907 573.809 163.031C574.426 163.155 575.043 163.279 575.66 163.279C576.277 163.279 576.771 163.774 577.141 164.269C577.511 164.764 577.882 165.259 578.499 165.631C578.869 165.878 579.239 166.002 579.609 166.002C579.979 166.126 580.35 166.126 580.72 166.126C581.337 166.126 581.83 165.755 582.447 165.631C583.064 165.383 583.558 165.259 584.175 165.136C584.422 165.136 584.669 165.136 585.039 165.136C585.409 165.259 585.779 165.507 586.026 165.755C586.396 166.002 586.766 166.374 587.137 166.621C587.383 166.869 587.877 166.992 588 167.364C588 166.621 587.507 165.507 586.766 165.012Z" fill="url(#paint2_linear)"/>
<path opacity="0.3" d="M601.079 187.541C601.079 187.17 601.079 186.798 600.956 186.427L600.586 185.437L600.339 184.941L589.727 186.798L590.714 189.522L601.079 188.903V187.541Z" fill="#191C3C"/>
<path d="M579.98 166.124L583.065 165.258H584.669C585.903 165.258 587.138 165.629 588.125 166.496L592.937 170.457C594.665 171.942 596.022 173.675 597.01 175.78L601.699 188.035L589.976 189.768L584.916 174.542L580.597 172.19L579.363 169.838L579.98 166.124Z" fill="white"/>
<path d="M581.461 231.981L581.584 231.61C581.955 230.867 582.572 230.124 583.312 229.753L586.52 228.639L588.618 227.277V228.391H591.086L592.073 227.772H592.814V231.981H581.461Z" fill="#FEC55E"/>
<path d="M593.431 231.98H581.215V232.599H593.431V231.98Z" fill="#191C3C"/>
<path d="M596.514 232.602V231.983C596.637 231.116 596.637 231.116 597.131 230.497L599.228 228.269L600.462 226.289L600.956 227.279L602.93 226.165L603.547 225.298L604.164 225.051L605.892 228.517L597.748 232.602H596.514Z" fill="#FEC55E"/>
<path d="M606.403 228.076L598.701 232L598.981 232.552L606.682 228.628L606.403 228.076Z" fill="#191C3C"/>
<path d="M596.514 232.599H598.982L599.845 231.98H596.514V232.599Z" fill="#191C3C"/>
<path d="M582.57 230.246H590.591V229.875H582.94C582.94 229.999 582.817 230.123 582.57 230.246Z" fill="white"/>
<path d="M584.422 229.258H592.813V228.887H585.409L584.422 229.258Z" fill="white"/>
<path d="M604.412 225.668L598.859 228.639L598.242 229.382L604.536 225.916L604.412 225.668Z" fill="white"/>
<path d="M603.056 227.402L597.009 230.621C596.885 230.868 596.762 230.992 596.639 231.116L603.056 227.65V227.402Z" fill="white"/>
<g opacity="0.3">
<path opacity="0.3" d="M600.091 194.226C599.597 195.959 598.61 197.197 596.882 197.939C596.512 198.063 596.265 198.682 596.512 199.053C596.265 199.177 596.019 199.301 595.772 199.425C595.278 199.672 596.019 199.92 596.512 200.044C597.499 200.168 596.019 201.034 595.895 201.653C595.772 202.396 595.401 203.138 595.278 203.881C595.155 204.624 595.155 205.243 595.278 205.862L597.129 200.415L599.474 196.701C600.091 195.835 600.461 194.845 600.708 193.73C600.461 193.73 600.214 193.978 600.091 194.226Z" fill="#41446B"/>
<path opacity="0.3" d="M594.663 207.346C594.169 207.346 593.676 207.222 593.305 207.098C592.442 206.851 593.182 207.717 594.046 208.089C594.293 208.213 593.305 208.584 593.552 208.708C593.552 208.708 592.812 209.079 592.812 209.203C592.195 209.574 593.059 209.946 593.676 210.069C593.552 210.193 593.552 210.317 593.429 210.565C593.059 211.679 593.552 213.536 593.676 214.65C593.676 214.897 593.799 215.021 593.922 215.145L594.663 207.717V207.346Z" fill="#41446B"/>
</g>
<path opacity="0.1" d="M589.605 182.96C589.358 182.96 588.617 182.712 588.371 182.712C588.494 182.589 589.111 182.093 588.988 181.97C587.877 181.722 587.137 180.979 587.013 179.741C587.013 179.494 586.766 179.37 586.52 179.494L587.383 181.97C587.507 182.093 587.754 182.217 587.877 182.217C587.877 182.217 587.754 182.217 587.754 182.341C587.63 182.341 587.63 182.465 587.63 182.465L587.754 182.96C587.877 182.96 587.877 182.96 588 182.96C587.877 182.96 587.877 183.084 587.877 183.208L588 183.579C588 183.579 588.617 185.064 588.741 185.807L589.728 188.654C589.728 187.416 589.605 186.055 589.358 184.817C589.234 184.322 589.234 183.826 588.988 183.579C589.358 183.455 589.728 183.455 590.098 183.331C590.345 183.084 589.975 182.96 589.605 182.96Z" fill="#191C3C"/>
<path d="M583.188 178.878L583.805 183.582L577.758 191.381L575.784 191.133L573.933 192.123L573.439 192.99L573.686 195.218L577.265 195.589L579.239 193.237L587.384 185.686C587.63 185.439 587.754 185.067 587.754 184.696L587.137 178.383L583.188 178.878Z" fill="#FEC55E"/>
<path opacity="0.3" d="M587.26 178.258L583.188 178.877L583.311 179.372L587.26 178.877V178.258Z" fill="#191C3C"/>
<path d="M587.632 171.944L586.891 173.925L587.632 178.258L582.572 178.876L580.598 172.068L581.461 169.84L587.632 171.944Z" fill="white"/>
<path opacity="0.1" d="M587.136 177.514C586.889 176.276 587.013 175.409 586.643 174.172C586.519 173.553 586.396 173.429 586.149 173.305C586.396 173.181 586.396 172.934 586.272 172.81C586.643 172.562 586.643 172.067 587.013 171.82C587.383 171.572 587.26 171.448 586.889 171.572C586.396 171.82 585.902 172.067 585.532 172.439C585.409 172.562 585.285 172.81 585.409 172.934C585.285 172.934 585.409 173.305 585.285 173.305C585.038 173.429 584.915 173.553 585.162 173.676C585.902 174.048 586.026 174.791 586.149 175.533C586.396 176.4 586.519 177.266 586.766 178.133C587.013 178.628 587.26 177.885 587.136 177.514Z" fill="#191C3C"/>
<path d="M544.193 217.004C544.193 217.004 543.947 217.252 544.193 217.004V217.004ZM546.908 214.405C544.07 211.434 540.738 208.958 536.789 207.968C532.964 206.854 528.522 207.225 525.066 209.453C529.879 214.652 537.036 217.499 544.193 217.128C545.181 217.252 548.142 217.252 549.006 216.757C549.253 216.633 548.513 215.89 548.019 215.271C547.896 215.024 547.155 214.529 546.908 214.405Z" fill="#D8ED96"/>
<g opacity="0.2">
<path opacity="0.2" d="M548.019 215.147C547.772 214.899 547.155 214.528 547.032 214.404C544.194 211.433 540.862 208.958 536.913 207.967C535.062 207.472 533.088 207.225 531.113 207.472C533.334 207.596 535.556 208.215 537.53 209.205C541.109 211.062 543.824 213.909 546.045 217.251C547.279 217.251 548.513 217.128 549.006 216.88C549.253 216.509 548.636 215.766 548.019 215.147Z" fill="#191C3C"/>
</g>
<path d="M550.241 208.216C550.858 209.825 551.598 212.301 550.858 213.91C550.364 215.148 549.377 217.005 548.143 216.757C547.156 215.396 544.935 212.549 543.577 211.558C542.467 210.692 540.739 209.701 539.628 208.711C536.914 206.235 535.926 202.893 534.322 199.551C537.037 199.798 539.752 200.294 542.467 201.036C544.194 201.531 545.922 202.15 547.279 203.388C548.883 204.626 549.624 206.483 550.241 208.216Z" fill="#D8ED96"/>
<path opacity="0.08" d="M544.441 211.557C543.454 210.443 541.973 209.205 540.986 208.091C539.135 205.615 538.518 202.892 537.777 199.921C536.667 199.673 535.556 199.55 534.322 199.426C535.803 202.768 536.914 206.11 539.628 208.586C540.616 209.576 542.467 210.567 543.577 211.433C544.194 211.928 545.058 212.919 545.798 213.785C545.428 212.919 544.935 212.052 544.441 211.557Z" fill="#F5F7F9"/>
<path d="M551.72 199.551C552.707 202.026 552.584 204.874 552.584 207.473C552.584 208.464 552.83 210.197 552.584 211.187C552.337 212.053 551.843 212.796 551.35 213.539C550.856 214.158 550.362 213.415 549.992 212.796C549.622 212.177 549.005 211.311 549.252 211.434C548.758 209.949 548.511 208.959 548.141 207.349C547.771 206.112 547.401 204.874 547.154 203.636C546.66 200.541 547.277 197.446 547.894 194.352C549.622 195.713 550.856 197.57 551.72 199.551Z" fill="#D8ED96"/>
<path d="M527.165 209.95C530.62 209.826 534.075 209.95 537.53 210.94C540.739 211.807 543.7 213.416 546.292 215.397C546.415 215.521 546.539 215.273 546.415 215.149C543.824 213.169 540.739 211.683 537.53 210.693C534.075 209.702 530.62 209.702 527.165 209.95C527.041 209.95 527.041 209.826 527.165 209.95Z" fill="#1E2022"/>
<path d="M535.555 200.539C538.393 201.901 540.984 203.634 543.206 205.862C545.674 208.214 547.278 211.061 549.005 213.909C549.005 214.032 549.252 213.909 549.129 213.785C546.167 207.967 541.725 203.015 535.555 200.539C535.555 200.539 535.555 200.416 535.555 200.539Z" fill="#1E2022"/>
<path d="M548.02 195.59C549.871 201.037 551.968 206.359 550.734 212.301C550.734 212.425 550.858 212.549 550.981 212.301C552.092 206.731 550.488 200.665 548.02 195.59Z" fill="#1E2022"/>
<path d="M529.633 211.929C530.003 211.557 530.373 211.186 530.867 210.815C531.36 210.443 531.731 210.196 532.224 209.948V209.824C531.237 210.196 530.25 211.062 529.633 211.929Z" fill="#1E2022"/>
<path d="M532.471 213.29C533.458 211.557 534.939 210.938 536.79 210.814C536.913 210.814 536.913 210.566 536.79 210.566C534.939 210.814 533.088 211.433 532.471 213.29Z" fill="#1E2022"/>
<path d="M536.05 213.539C537.16 212.673 538.271 211.311 539.875 211.682C539.998 211.682 539.998 211.559 539.875 211.559C538.271 211.187 537.037 212.549 536.05 213.539C535.926 213.539 535.926 213.539 536.05 213.539Z" fill="#1E2022"/>
<path d="M539.504 215.396C540.491 214.034 542.095 212.92 543.823 213.787C543.946 213.787 544.07 213.663 543.946 213.663C542.095 212.673 540.368 213.787 539.504 215.396C539.504 215.396 539.381 215.396 539.504 215.396Z" fill="#1E2022"/>
<path d="M531.359 207.719C531.606 208.833 532.593 209.576 533.457 210.195C533.58 210.195 533.581 210.071 533.581 210.071C532.717 209.452 531.73 208.833 531.359 207.719C531.359 207.719 531.483 207.595 531.359 207.719Z" fill="#1E2022"/>
<path d="M535.184 207.969C535.554 209.083 536.294 209.949 537.158 210.816C537.282 210.94 537.405 210.816 537.282 210.692C536.294 209.826 535.677 208.959 535.184 207.969C535.06 207.969 535.184 207.969 535.184 207.969Z" fill="#1E2022"/>
<path d="M538.271 209.207C538.518 209.702 538.765 210.197 539.012 210.692C539.259 211.064 539.629 211.683 539.999 211.807H540.122V211.683H539.999V211.807C540.122 211.807 539.629 211.188 539.629 211.188C539.505 210.94 539.382 210.816 539.135 210.692C538.888 210.074 538.518 209.578 538.271 209.207Z" fill="#1E2022"/>
<path d="M540.861 210.445C541.602 211.683 542.589 212.674 543.7 213.54C543.823 213.664 543.946 213.416 543.946 213.292C542.712 212.55 541.849 211.436 540.861 210.445Z" fill="#1E2022"/>
<path d="M537.282 204.253C539.256 204.129 540.984 204.253 542.588 205.243C542.712 205.367 542.835 205.12 542.712 204.996C541.231 204.006 539.01 203.387 537.282 204.006C537.159 204.129 537.159 204.253 537.282 204.253Z" fill="#1E2022"/>
<path d="M540.244 207.472C541.231 207.472 542.095 207.472 542.959 207.719C543.823 207.967 544.563 208.215 545.427 208.462C545.55 208.462 545.55 208.338 545.427 208.215C543.823 207.719 541.972 206.977 540.244 207.472Z" fill="#1E2022"/>
<path d="M543.945 210.321C544.562 210.321 545.303 210.445 545.92 210.568C546.66 210.692 547.154 211.064 547.647 211.683C547.771 211.806 547.894 211.682 547.771 211.559C547.277 211.064 546.907 210.692 546.167 210.445C545.426 210.321 544.686 210.197 543.945 210.321Z" fill="#1E2022"/>
<path d="M541.232 202.026C541.232 202.769 541.603 203.512 541.973 204.131C542.22 204.502 542.343 205.245 542.837 205.369C542.837 205.369 542.96 205.369 542.837 205.245C541.973 204.502 541.973 203.017 541.232 202.026C541.232 201.903 541.356 201.903 541.232 202.026Z" fill="#1E2022"/>
<path d="M544.193 202.77C544.44 204.75 544.934 206.607 545.674 208.464C545.674 208.588 545.921 208.464 545.798 208.464C545.057 206.607 544.687 204.75 544.193 202.77Z" fill="#1E2022"/>
<path d="M547.4 206.98C547.4 208.589 547.771 210.322 548.141 211.931C548.141 212.055 548.388 212.055 548.388 211.931C547.894 210.198 547.647 208.589 547.4 206.98C547.4 206.856 547.4 206.856 547.4 206.98Z" fill="#1E2022"/>
<path d="M547.4 198.684C548.634 200.046 549.498 201.407 550.239 203.017C550.362 203.14 550.485 203.017 550.485 202.893C549.745 201.283 548.758 199.922 547.4 198.684C547.4 198.684 547.4 198.56 547.4 198.684Z" fill="#1E2022"/>
<path d="M551.227 199.058C550.61 200.296 550.486 201.905 550.486 203.266C550.486 203.39 550.733 203.39 550.733 203.266C550.733 202.524 550.857 201.781 550.98 200.915C550.98 200.296 551.227 199.677 551.227 199.058C551.227 198.934 551.35 198.934 551.227 199.058Z" fill="#1E2022"/>
<path d="M549.129 203.758C549.993 205.12 550.61 206.482 551.103 207.967H551.227C550.98 206.482 550.116 204.872 549.129 203.758C549.006 203.758 549.129 203.634 549.129 203.758Z" fill="#1E2022"/>
<path d="M551.229 208.092C551.599 207.102 551.969 206.111 552.463 205.245C552.463 205.121 552.339 205.121 552.339 205.121C551.846 205.988 551.352 206.978 551.229 208.092Z" fill="#1E2022"/>
<path d="M0 270.976C0 270.976 128.706 190.884 218.171 225.298C307.636 259.711 428.445 244.733 428.445 244.733V345.002H0V270.976Z" fill="#D4DEE8"/>
<path d="M0 241.059C0 241.059 82.1844 273.82 238.779 217.249C273.578 204.622 308.006 191.005 342.929 178.627C364.524 170.952 387.599 165.381 410.675 166C433.381 166.743 455.593 173.056 476.447 181.969C488.294 187.168 499.77 193.234 510.876 199.794C521.488 206.108 531.484 213.659 542.96 218.487C553.202 222.695 563.938 225.295 574.921 226.657C582.942 227.647 591.086 228.142 599.107 228.39C605.03 228.514 611.077 228.514 617 228.514V344.875H0V241.059Z" fill="url(#paint3_linear)"/>
<path d="M458.183 257.853L452.507 257.73L452.013 257.358H451.89L480.272 241.266L481.753 240.647H481.506C482 240.523 482.37 240.399 482.617 240.275L487.799 237.552L489.404 236.685L496.437 234.457L490.884 238.295C490.761 238.542 491.131 238.666 491.748 238.79C492.612 238.914 494.463 238.79 495.697 238.419L509.641 234.952H509.148L510.011 234.705L523.956 232.972C523.709 232.848 522.845 232.848 521.858 232.848L519.143 233.219H518.526C518.032 233.219 517.292 233.219 516.675 233.343L515.318 233.467L511.369 233.715C510.258 233.838 509.148 233.962 508.284 234.21L506.433 234.705H506.68H506.063L499.769 236.067L505.199 233.219C506.186 232.724 506.063 232.229 504.952 231.981L498.659 230.62C500.263 230.248 501.867 229.753 502.731 229.506C503.224 229.382 503.348 229.258 503.595 229.011L504.582 228.887C504.582 228.887 506.803 228.392 506.926 228.144V228.02C507.79 227.649 508.407 227.401 509.271 227.03C509.518 226.906 509.888 226.782 510.011 226.659C510.135 226.535 510.135 226.535 510.135 226.411C510.135 226.287 510.258 226.04 510.258 225.916C510.382 225.668 509.641 225.668 508.901 225.544C508.16 225.421 507.667 225.297 506.803 225.297C506.186 225.297 505.446 225.297 504.829 225.421C504.582 225.421 504.212 225.544 503.965 225.544C503.471 225.544 503.101 225.544 502.731 225.544C501.744 225.544 500.386 225.792 499.522 226.04C499.399 226.04 499.276 226.163 499.152 226.163C499.029 226.163 498.782 226.163 498.659 226.287C496.684 226.659 496.191 227.154 495.574 227.525C495.327 227.649 494.957 227.773 494.833 228.02C494.34 228.02 493.846 228.144 493.846 228.144C492.612 228.515 492.735 228.887 492.735 228.887L493.476 229.011C493.352 229.011 493.352 229.134 493.229 229.134C493.106 229.134 492.982 229.258 492.859 229.258C492.242 229.506 491.995 229.753 491.872 229.877L490.761 230.372L477.557 231.858C475.213 232.105 472.991 232.6 471.634 233.096L464.477 235.943L464.353 234.581H463.736L464.107 234.086C464.23 233.838 463.983 233.715 463.243 233.591L460.405 233.343L459.788 233.219C459.417 233.096 458.924 233.096 458.307 233.096H457.443L456.086 232.724C455.592 232.6 454.605 232.6 453.741 232.848L460.158 234.581L459.911 234.829H459.171L457.443 238.295C457.32 238.666 458.43 238.79 460.034 238.666C461.022 238.542 462.132 238.419 463.119 238.171L471.634 235.324L470.03 236.067L468.672 236.685L467.932 236.933L463.119 238.914L460.405 240.028C460.158 240.152 459.911 240.275 460.034 240.399L458.924 240.894L434.244 249.807L417.832 257.111H417.091L415.24 257.482L408.7 257.606C406.972 257.73 406.602 257.853 405.368 258.225L404.998 258.349H417.585L419.189 258.101L418.572 258.349H422.768L425.359 257.234H425.112L432.64 254.14L440.784 250.797L462.379 244.237L462.256 244.36L462.132 244.484L453.864 251.045L443.869 257.234H443.746L441.154 258.349H445.35L445.967 258.101L446.214 258.349H458.8L458.924 258.225C459.417 257.977 459.294 257.977 458.183 257.853Z" fill="#D1D3DB"/>
<path d="M419.559 182.34L414.006 221.705L413.883 253.766H422.274L424.002 225.79L431.899 197.442L439.056 226.409L443.375 253.766H452.26L443.622 182.34H419.559Z" fill="#377DFF"/>
<path d="M413.388 253.397L412.03 254.759L405.243 255.502C403.639 255.997 403.392 256.368 402.899 257.977L402.775 258.349H416.843L417.83 257.111V258.349H422.519V253.273H418.817L413.388 253.397Z" fill="#2D1582"/>
<path d="M452.385 253.397L453.743 254.759L460.53 255.502C462.134 255.997 462.381 256.368 462.874 257.977L462.998 258.349H448.93L447.943 257.111V258.349H443.254V253.273H446.956L452.385 253.397Z" fill="#2D1582"/>
<path d="M428.445 137.035L418.943 142.358L419.807 164.888L419.067 179.619C418.943 181.104 420.177 182.342 421.658 182.342H441.279C442.883 182.342 443.994 180.98 443.87 179.495L442.636 164.269L447.449 142.977L436.836 137.035H428.445Z" fill="#474963"/>
<path d="M436.836 137.406L432.641 145.081L428.445 137.406V131.836H436.836V137.406Z" fill="#FEC55E"/>
<path d="M440.537 120.447C440.414 120.075 440.291 119.704 440.167 119.456C439.797 118.837 439.427 118.095 439.18 117.476C438.563 116.238 437.946 116.485 436.835 116.114C435.848 115.743 434.861 115.124 433.75 115C433.01 115 432.393 115.248 431.776 115.495C431.529 115.619 431.282 115.743 431.036 115.867C430.542 115.99 430.048 115.867 429.555 115.867C428.444 115.867 427.334 116.733 427.087 117.847C427.087 117.971 426.963 118.219 426.963 118.342C426.84 118.466 426.717 118.59 426.593 118.714C425.113 120.075 425.976 122.427 426.223 124.16C426.346 125.151 426.223 126.141 427.087 126.884L426.717 126.76C427.704 127.75 428.938 128.245 430.295 128.493C431.653 128.741 433.01 128.741 434.367 128.741C435.972 128.741 437.576 128.741 439.18 128.741C439.427 128.741 439.797 128.741 440.044 128.493C440.291 128.245 440.414 127.874 440.414 127.503C440.661 125.646 440.537 123.789 440.661 121.932C440.537 121.313 440.661 120.818 440.537 120.447Z" fill="#4D5068"/>
<path opacity="0.3" d="M428.445 135.056L429.679 137.16C430.42 138.522 431.9 139.388 433.505 139.388C434.862 139.388 436.219 138.769 436.96 137.655V131.961H428.445V135.056V135.056Z" fill="#191C3C"/>
<path d="M427.705 123.296V129.733C427.705 131.218 428.075 132.58 428.816 133.942L430.05 136.046C430.79 137.408 432.271 138.274 433.875 138.274C435.356 138.274 436.837 137.531 437.577 136.17L437.824 135.798C438.564 134.561 439.058 132.951 439.058 131.466V125.276V119.582H427.952L427.705 123.296Z" fill="#FEC55E"/>
<path d="M427.827 130.721L426.593 129.979C426.593 129.979 425.235 127.998 425.852 126.636C425.852 126.636 426.346 125.522 427.21 126.017L428.444 127.255L427.827 130.721Z" fill="#FEC55E"/>
<path d="M438.685 130.721L439.919 129.979C439.919 129.979 441.277 127.998 440.66 126.636C440.66 126.636 440.166 125.522 439.302 126.017L438.068 127.255L438.685 130.721Z" fill="#FEC55E"/>
<path d="M427.333 124.406C427.456 125.396 427.58 126.387 427.58 127.501C427.58 127.872 427.456 129.11 428.197 128.739C428.443 128.615 428.567 128.367 428.567 128.12C428.69 127.13 427.826 126.263 428.32 125.396C428.69 124.778 429.431 124.282 429.554 123.54C429.677 123.044 429.431 122.426 429.307 121.93C429.307 121.559 429.307 121.064 429.554 120.692C429.801 120.321 430.294 120.197 430.665 120.321C431.035 120.445 431.281 120.816 431.652 121.064C432.392 121.683 433.379 121.93 434.243 121.559C434.737 121.311 435.23 120.94 435.724 120.692C436.218 120.321 436.835 120.197 437.328 120.321C438.192 120.569 438.439 121.435 438.686 122.302C438.809 123.168 439.056 124.159 438.932 125.025C438.809 125.768 438.439 126.387 438.315 127.13C438.315 127.253 438.192 127.501 438.192 127.625C438.192 127.996 438.439 128.244 438.562 128.491C438.562 128.491 438.562 128.615 438.686 128.615C438.809 128.615 438.809 128.615 438.932 128.491C439.426 128.12 439.549 127.377 439.673 126.758C439.796 125.892 440.166 125.396 439.92 124.53C439.549 122.797 440.043 121.064 439.673 119.331C439.673 119.207 439.549 118.959 439.549 118.836C439.426 118.712 439.179 118.588 439.056 118.464C436.588 117.598 433.996 117.722 431.405 117.845C430.541 117.845 429.554 117.969 428.814 118.464C427.95 119.083 427.456 120.074 427.209 121.188C427.086 122.178 427.209 123.292 427.333 124.406Z" fill="#4D5068"/>
<path d="M405.121 156.221L404.751 155.107L393.398 147.803C394.015 147.184 395.126 147.06 395.866 147.556L398.088 148.917L398.951 148.793C399.568 148.67 400.309 148.793 400.926 149.165L402.036 149.908L405.862 151.022C406.849 151.269 407.713 152.136 408.083 153.126L408.947 155.23L405.121 156.221Z" fill="#FEC55E"/>
<path d="M460.157 156.221L460.528 155.107L471.88 147.803C471.263 147.184 470.153 147.06 469.412 147.556L467.191 148.917L466.327 148.793C465.71 148.67 464.97 148.793 464.353 149.165L463.242 149.908L459.417 151.022C458.43 151.269 457.566 152.136 457.196 153.126L456.332 155.23L460.157 156.221Z" fill="#FEC55E"/>
<path d="M428.444 137.035L417.214 143.348C415.24 144.463 413.883 146.443 413.759 148.795L412.772 161.05L409.193 155.108L404.381 156.594L411.168 171.82C411.785 173.182 413.512 173.8 414.87 173.182C415.734 172.686 416.597 172.067 417.091 170.953L420.67 152.88L428.444 141.368V137.035Z" fill="#474963"/>
<path d="M436.836 137.035L448.065 143.348C450.04 144.463 451.397 146.443 451.521 148.795L452.508 161.05L456.086 155.108L460.899 156.594L454.112 171.82C453.495 173.182 451.767 173.8 450.41 173.182C449.546 172.686 448.682 172.067 448.189 170.953L444.61 152.88L436.836 141.368V137.035Z" fill="#474963"/>
<path d="M443.869 181.105H419.436V184.819H443.869V181.105Z" fill="#2D1582"/>
<path d="M433.504 181.105H429.309V184.819H433.504V181.105Z" fill="#FEC55E"/>
<path opacity="0.17" d="M442.759 164.266L444.98 154.363C444.24 155.477 443.623 156.715 443.006 157.953C442.759 158.448 443.006 158.943 443.376 159.191C442.882 160.305 441.031 162.162 440.291 162.905C439.674 163.524 441.402 163.647 442.142 163.4C442.142 163.4 442.142 163.4 442.265 163.4C441.772 164.266 441.278 165.133 440.661 165.876C440.291 166.371 439.304 167.114 439.921 166.99C440.414 166.866 442.019 167.237 442.512 167.114C442.265 167.733 442.142 168.228 441.895 168.847C441.648 169.466 442.019 170.084 442.512 170.208C442.142 170.208 442.636 173.674 442.759 174.046C443.006 175.16 443.253 175.903 443.746 176.645L443.253 168.104V167.98L442.759 164.266Z" fill="#191C3C"/>
<path opacity="0.17" d="M421.904 166.496C419.929 165.506 419.436 164.515 420.176 163.525C420.917 163.772 422.027 163.525 422.768 163.772C423.261 163.896 423.014 163.277 421.41 163.154C421.657 163.154 419.683 160.678 420.423 160.678C420.793 160.678 421.04 160.183 420.917 159.811C420.053 158.326 419.929 156.221 419.436 154.488L419.683 162.039C419.806 162.163 420.053 162.287 420.176 162.535C420.053 162.535 419.806 162.411 419.683 162.411L419.806 165.01V165.877C419.93 166.001 419.929 166.124 420.053 166.248C419.929 166.248 419.93 166.248 419.806 166.248L419.312 177.637C419.436 177.513 419.559 177.389 419.559 177.265C419.559 174.913 420.3 172.933 420.546 170.705C420.67 169.962 420.053 167.239 421.657 167.61C422.027 167.61 422.397 166.743 421.904 166.496Z" fill="#191C3C"/>
<path d="M428.445 137.035L425.977 138.521L428.815 148.919L432.64 145.081L428.445 137.035Z" fill="white"/>
<path d="M436.834 137.035L439.426 138.521L436.464 148.919L432.639 145.081L436.834 137.035Z" fill="white"/>
<path d="M432.64 149.291C432.913 149.291 433.134 149.069 433.134 148.796C433.134 148.522 432.913 148.301 432.64 148.301C432.367 148.301 432.146 148.522 432.146 148.796C432.146 149.069 432.367 149.291 432.64 149.291Z" fill="#191C3C"/>
<path d="M432.888 154.487C432.888 154.735 432.641 154.982 432.394 154.982C432.147 154.982 431.9 154.735 431.9 154.487C431.9 154.24 432.147 153.992 432.394 153.992C432.641 153.992 432.888 154.24 432.888 154.487Z" fill="#191C3C"/>
<path d="M432.639 160.058C432.639 160.305 432.393 160.553 432.146 160.553C431.899 160.553 431.652 160.305 431.652 160.058C431.652 159.81 431.899 159.562 432.146 159.562C432.516 159.686 432.639 159.81 432.639 160.058Z" fill="#191C3C"/>
<path d="M432.023 166.248C432.295 166.248 432.516 166.026 432.516 165.753C432.516 165.479 432.295 165.258 432.023 165.258C431.75 165.258 431.529 165.479 431.529 165.753C431.529 166.026 431.75 166.248 432.023 166.248Z" fill="#191C3C"/>
<path d="M431.777 171.943C432.049 171.943 432.27 171.722 432.27 171.448C432.27 171.175 432.049 170.953 431.777 170.953C431.504 170.953 431.283 171.175 431.283 171.448C431.283 171.722 431.504 171.943 431.777 171.943Z" fill="#191C3C"/>
<path d="M432.022 177.019C432.022 177.266 431.776 177.514 431.529 177.514C431.282 177.514 431.035 177.266 431.035 177.019C431.035 176.771 431.282 176.523 431.529 176.523C431.899 176.647 432.022 176.771 432.022 177.019Z" fill="#191C3C"/>
<g opacity="0.11">
<g opacity="0.11">
<path opacity="0.11" d="M424.001 225.79L423.138 240.15C423.014 240.274 422.891 240.274 422.768 240.397C422.644 235.941 421.904 231.485 420.67 227.276C421.41 227.028 422.151 226.533 422.644 225.914C422.151 225.914 421.657 225.79 421.163 225.79C421.533 225.543 421.904 225.171 422.027 224.8C420.917 224.8 419.806 224.8 418.695 224.8C421.78 224.057 424.125 221.086 424.001 217.992C423.631 218.115 423.138 217.992 422.768 217.744C423.878 216.011 424.989 214.278 426.099 212.421C426.346 212.174 426.469 211.802 426.346 211.431C425.729 211.926 425.112 212.297 424.372 212.421C425.235 211.431 426.099 210.317 426.469 209.079C426.963 207.593 426.84 205.984 427.086 204.499C427.58 201.651 429.308 199.176 431.776 197.814L424.001 225.79ZM432.022 198.309C432.022 198.062 432.022 197.938 432.022 197.69L431.899 197.566L432.022 198.309Z" fill="#191C3C"/>
</g>
</g>
<g opacity="0.11">
<path opacity="0.11" d="M452.013 251.663L443.869 183.703C443.746 183.703 443.622 183.703 443.622 183.703L443.499 184.074C443.129 188.531 443.129 192.987 443.869 197.32C444.239 199.919 444.856 202.519 444.239 205.119C444.116 205.985 443.745 206.604 443.375 207.471C443.005 208.461 442.882 209.699 442.758 210.689C442.512 211.803 442.388 212.794 442.265 213.908C442.141 215.022 441.895 216.136 441.895 217.374C441.895 217.498 446.213 216.507 446.707 216.012C446.337 217.993 445.596 220.097 444.856 221.954C445.35 220.964 445.967 219.973 446.83 219.231C446.09 220.592 445.72 222.078 445.473 223.687C446.337 223.563 447.201 223.439 448.188 223.439C447.447 225.172 446.707 226.782 445.843 228.515C446.83 228.02 447.694 227.524 448.681 227.029C448.435 231.238 448.188 235.447 447.941 239.532C447.818 241.141 447.818 242.751 448.435 244.236C448.928 245.35 449.669 246.217 450.286 247.207C451.273 248.94 451.766 251.044 451.52 253.025C451.643 252.654 451.766 252.158 452.013 251.663Z" fill="#191C3C"/>
</g>
<path d="M430.913 132.456C430.79 132.827 430.667 133.075 430.543 133.446C430.42 133.694 430.05 134.065 429.679 133.941C429.309 133.817 429.186 133.322 429.186 132.951C429.062 131.837 429.309 130.846 428.939 129.732C428.816 129.485 428.692 129.237 428.692 128.866C428.692 128.618 428.692 128.371 428.692 127.999C428.692 127.752 428.445 127.504 428.199 127.504C427.952 127.504 427.705 127.752 427.705 127.999C427.705 128.247 427.705 128.494 427.705 128.742C427.952 129.98 428.075 131.094 427.952 132.208C427.828 133.446 428.322 134.56 428.692 135.674C428.816 136.046 428.939 136.417 429.186 136.788C429.679 137.655 430.667 138.274 431.654 138.521C432.641 138.769 433.752 138.769 434.739 138.769C435.356 138.769 436.096 138.769 436.713 138.521C438.564 137.779 439.058 134.313 439.305 132.58C439.428 131.837 439.181 131.218 439.181 130.475C439.058 129.609 439.428 128.618 439.551 127.752C439.551 127.628 439.551 127.504 439.428 127.38C439.305 127.257 439.058 127.257 439.058 127.133C438.811 127.38 438.441 127.752 438.317 128.123C438.317 128.247 438.317 128.494 438.317 128.618C438.317 129.361 438.317 130.104 438.194 130.723C437.947 131.589 437.7 132.332 437.577 133.198C437.577 133.57 437.454 134.065 436.96 134.189C436.713 134.313 436.343 134.065 436.22 133.694C436.096 133.446 436.096 133.075 436.096 132.703C436.096 132.332 436.096 132.084 435.849 131.837C435.603 131.465 435.109 131.465 434.615 131.465C433.505 131.465 431.654 130.846 430.913 132.456Z" fill="#4D5068"/>
<path d="M139.813 88.3867C139.073 86.2823 137.098 84.673 134.754 84.673C133.766 84.673 132.779 84.9206 132.039 85.5395C131.545 82.1972 128.707 79.5977 125.128 79.5977C122.043 79.5977 119.329 81.7021 118.465 84.5492C118.095 84.4254 117.601 84.4254 117.231 84.4254C114.886 84.4254 112.912 86.1585 112.542 88.5105H111.801C109.827 88.5105 108.223 90.1197 108.223 92.1003V92.3479C108.223 94.3285 109.827 95.9378 111.801 95.9378H139.813C141.787 95.9378 143.392 94.3285 143.392 92.3479V92.1003C143.392 89.9959 141.787 88.3867 139.813 88.3867Z" fill="white"/>
<path d="M73.424 69.3223C72.9304 67.8368 71.4496 66.7227 69.8454 66.7227C69.105 66.7227 68.488 66.9703 67.871 67.3416C67.5008 64.9896 65.403 63.1328 62.935 63.1328C60.7138 63.1328 58.8628 64.6183 58.2458 66.5989C57.999 66.4751 57.6288 66.4751 57.382 66.4751C55.6544 66.4751 54.297 67.713 54.0502 69.3223H53.4332C52.0758 69.3223 50.8418 70.4364 50.8418 71.9218V72.1694C50.8418 73.5311 51.9524 74.769 53.4332 74.769H73.424C74.7814 74.769 76.0154 73.6549 76.0154 72.1694V71.9218C75.892 70.4364 74.7814 69.3223 73.424 69.3223Z" fill="white"/>
<path d="M176.586 60.6554C175.969 58.7986 174.241 57.4369 172.267 57.4369C171.403 57.4369 170.539 57.6845 169.922 58.1796C169.429 55.2087 166.961 52.9805 163.999 52.9805C161.284 52.9805 158.94 54.8373 158.199 57.3131C157.829 57.1893 157.459 57.1893 157.089 57.1893C154.991 57.1893 153.263 58.6748 153.016 60.6554H152.399C150.672 60.6554 149.314 62.0171 149.314 63.7501V63.9977C149.314 65.7307 150.672 67.0924 152.399 67.0924H176.833C178.56 67.0924 179.918 65.7307 179.918 63.9977V63.7501C179.671 62.0171 178.313 60.6554 176.586 60.6554Z" fill="white"/>
<path d="M176.957 104.602C176.586 103.612 175.723 102.993 174.735 102.993C174.242 102.993 173.872 103.116 173.501 103.364C173.255 101.879 172.021 100.641 170.416 100.641C169.059 100.641 167.825 101.631 167.455 102.869C167.331 102.869 167.085 102.745 166.838 102.745C165.727 102.745 164.863 103.488 164.74 104.602H164.37C163.506 104.602 162.766 105.345 162.766 106.211V106.335C162.766 107.201 163.506 107.944 164.37 107.944H177.08C177.944 107.944 178.684 107.201 178.684 106.335V106.211C178.561 105.345 177.82 104.602 176.957 104.602Z" fill="white"/>
<path d="M451.767 46.7926H451.52C450.533 43.4503 447.571 41.0983 443.993 41.0983C442.388 41.0983 441.031 41.5934 439.797 42.3362C439.057 37.137 434.491 33.1758 429.185 33.1758C424.372 33.1758 420.3 36.3943 418.942 40.7269C418.325 40.6031 417.708 40.4793 416.968 40.4793C413.266 40.4793 410.181 43.2027 409.687 46.7926H408.453C405.368 46.7926 402.9 49.2684 402.9 52.3631V52.7344C402.9 55.8292 405.368 58.3049 408.453 58.3049H451.89C454.975 58.3049 457.443 55.8292 457.443 52.7344V52.3631C457.32 49.2684 454.728 46.7926 451.767 46.7926Z" fill="#DAE1E9"/>
<path d="M446.707 48.156H446.46C445.597 45.3088 443.005 43.0806 439.797 43.0806C438.439 43.0806 437.082 43.452 436.095 44.1947C435.354 39.6145 431.406 36.1484 426.716 36.1484C422.397 36.1484 418.819 38.9956 417.585 42.833C417.091 42.7093 416.474 42.5855 415.857 42.5855C412.649 42.5855 409.934 44.9375 409.44 48.156H408.453C405.738 48.156 403.641 50.3842 403.641 52.9837V53.3551C403.641 56.0785 405.862 58.1829 408.453 58.1829H446.707C449.422 58.1829 451.52 55.9547 451.52 53.3551V52.9837C451.52 50.3842 449.299 48.156 446.707 48.156Z" fill="#F2F8F9"/>
<path d="M139.69 65.7296H129.078L124.142 56.0741C123.772 55.3314 124.265 54.4648 125.129 54.4648H128.831C129.201 54.4648 129.448 54.5886 129.695 54.8362L139.69 65.7296Z" fill="white"/>
<path d="M139.69 65.7296H129.078L124.142 56.0741C123.772 55.3314 124.265 54.4648 125.129 54.4648H128.831C129.201 54.4648 129.448 54.5886 129.695 54.8362L139.69 65.7296Z" fill="white"/>
<path d="M126.24 54.3438H125.129C124.265 54.3438 123.772 55.2103 124.142 55.953L129.078 65.6085H133.15L126.363 54.7151C126.363 54.7151 126.363 54.5913 126.24 54.3438Z" fill="#DAE1E9"/>
<path fill-rule="evenodd" clip-rule="evenodd" d="M124.365 55.9615C124.365 55.9619 124.365 55.9622 124.365 55.9626L129.231 65.4796H139.121L129.514 55.0092C129.407 54.9021 129.309 54.8314 129.207 54.786C129.105 54.7406 128.987 54.7148 128.831 54.7148H125.129C124.461 54.7148 124.074 55.3766 124.365 55.9615ZM123.918 56.1856C123.469 55.2853 124.07 54.2148 125.129 54.2148H128.831C129.045 54.2148 129.235 54.251 129.411 54.3294C129.585 54.4072 129.734 54.5212 129.872 54.6597L129.879 54.667L140.259 65.9796H128.925L123.918 56.1856Z" fill="#DAE9E6"/>
<path d="M176.464 69.4432H175.477C174.613 66.9674 172.268 65.2344 169.43 65.2344H126.24C126.24 71.1762 131.053 76.004 136.976 76.004H164.124H175.847H176.464C178.068 76.004 179.426 74.6423 179.426 73.0331V72.4141C179.426 70.8049 178.192 69.4432 176.464 69.4432Z" fill="white"/>
<path d="M176.462 73.5282H175.845H164.122H136.974C131.915 73.5282 127.596 69.9384 126.485 65.2344H126.115C126.115 71.1762 130.928 76.004 136.851 76.004H163.999H175.722H176.339C177.943 76.004 179.301 74.6423 179.301 73.0331V72.4141C179.301 72.0428 179.177 71.7952 179.177 71.4238C178.93 72.6617 177.82 73.5282 176.462 73.5282Z" fill="#DAE1E9"/>
<path fill-rule="evenodd" clip-rule="evenodd" d="M125.99 64.9844H169.43C172.31 64.9844 174.707 66.7064 175.652 69.1932H176.464C178.337 69.1932 179.676 70.6744 179.676 72.4141V73.0331C179.676 74.7797 178.207 76.254 176.464 76.254H136.976C130.914 76.254 125.99 71.3136 125.99 65.2344V64.9844ZM126.493 65.4844C126.626 71.1737 131.275 75.754 136.976 75.754H176.464C177.929 75.754 179.176 74.505 179.176 73.0331V72.4141C179.176 70.9353 178.046 69.6932 176.464 69.6932H175.299L175.241 69.5256C174.412 67.1507 172.163 65.4844 169.43 65.4844H126.493Z" fill="#DAE9E6"/>
<path d="M138.702 68.7005H126.239C125.498 68.7005 124.758 68.0815 124.758 67.215V66.7198C124.758 65.9771 125.375 65.2344 126.239 65.2344H138.702C139.442 65.2344 140.183 65.8533 140.183 66.7198V67.215C140.059 68.0815 139.442 68.7005 138.702 68.7005Z" fill="white"/>
<path d="M162.888 77.3663H147.586C146.846 77.3663 146.105 76.7473 146.105 75.8808V74.7667C146.105 74.024 146.722 73.2812 147.586 73.2812H162.888C163.628 73.2812 164.369 73.9002 164.369 74.7667V75.8808C164.369 76.6236 163.752 77.3663 162.888 77.3663Z" fill="white"/>
<path fill-rule="evenodd" clip-rule="evenodd" d="M126.239 65.4844C125.527 65.4844 125.008 66.1008 125.008 66.7198V67.215C125.008 67.9309 125.623 68.4505 126.239 68.4505H138.702C139.283 68.4505 139.817 67.9632 139.933 67.1968V66.7198C139.933 66.0039 139.317 65.4844 138.702 65.4844H126.239ZM124.508 66.7198C124.508 65.8535 125.223 64.9844 126.239 64.9844H138.702C139.568 64.9844 140.433 65.7027 140.433 66.7198V67.2327L140.43 67.2502C140.294 68.2071 139.597 68.9505 138.702 68.9505H126.239C125.373 68.9505 124.508 68.2321 124.508 67.215V66.7198Z" fill="#DAE9E6"/>
<path fill-rule="evenodd" clip-rule="evenodd" d="M147.586 73.5312C146.875 73.5312 146.355 74.1476 146.355 74.7667V75.8808C146.355 76.5967 146.971 77.1163 147.586 77.1163H162.888C163.6 77.1163 164.119 76.4999 164.119 75.8808V74.7667C164.119 74.0508 163.503 73.5312 162.888 73.5312H147.586ZM145.855 74.7667C145.855 73.9003 146.57 73.0312 147.586 73.0312H162.888C163.753 73.0312 164.619 73.7496 164.619 74.7667V75.8808C164.619 76.7472 163.904 77.6163 162.888 77.6163H147.586C146.721 77.6163 145.855 76.898 145.855 75.8808V74.7667Z" fill="#DAE9E6"/>
<path fill-rule="evenodd" clip-rule="evenodd" d="M172.144 69.4531H166.715V67.9531H172.144V69.4531Z" fill="#DAE9E6"/>
<path fill-rule="evenodd" clip-rule="evenodd" d="M163.137 69.4531H160.422V67.9531H163.137V69.4531Z" fill="#DAE9E6"/>
<path fill-rule="evenodd" clip-rule="evenodd" d="M158.816 69.4531H156.102V67.9531H158.816V69.4531Z" fill="#DAE9E6"/>
<path fill-rule="evenodd" clip-rule="evenodd" d="M154.375 69.4531H151.783V67.9531H154.375V69.4531Z" fill="#DAE9E6"/>
<path fill-rule="evenodd" clip-rule="evenodd" d="M150.055 69.4531H147.34V67.9531H150.055V69.4531Z" fill="#DAE9E6"/>
<path fill-rule="evenodd" clip-rule="evenodd" d="M145.736 69.4531H143.021V67.9531H145.736V69.4531Z" fill="#DAE9E6"/>
<path d="M564.307 67.8365H566.775V67.7127C566.775 66.8462 568.009 65.3607 568.749 64.618C569.613 63.6277 570.23 62.1422 570.23 60.6567C570.23 57.3144 567.515 54.7148 564.307 54.7148V67.8365Z" fill="#DAE1E9"/>
<path d="M564.308 67.8365H561.84V67.7127C561.84 66.8462 560.606 65.3607 559.866 64.618C559.002 63.6277 558.385 62.1422 558.385 60.6567C558.385 57.3144 561.1 54.7148 564.308 54.7148V67.8365Z" fill="white"/>
<path d="M564.307 67.8365H565.787V67.7127C565.787 66.8462 566.528 65.3607 566.898 64.618C567.392 63.6277 567.762 62.1422 567.762 60.6567C567.762 57.3144 566.281 54.7148 564.307 54.7148V67.8365Z" fill="white"/>
<path d="M564.309 67.8365H562.828V67.7127C562.828 66.8462 562.088 65.3607 561.717 64.618C561.224 63.6277 560.854 62.1422 560.854 60.6567C560.854 57.3144 562.334 54.7148 564.309 54.7148V67.8365Z" fill="#DAE1E9"/>
<path d="M565.049 75.7606H563.938C563.074 75.7606 562.334 75.0178 562.334 74.1513V72.0469H566.653V74.1513C566.653 75.0178 565.913 75.7606 565.049 75.7606Z" fill="white"/>
<path d="M562.828 74.1513V72.0469H562.211V74.1513C562.211 75.0178 562.951 75.7606 563.815 75.7606H564.432C563.568 75.7606 562.828 75.0178 562.828 74.1513Z" fill="#E4EDF7"/>
<path d="M565.665 72.0469V74.1513C565.665 75.0178 564.924 75.7606 564.061 75.7606H565.048C565.912 75.7606 566.652 75.0178 566.652 74.1513V72.0469H565.665Z" fill="#E4EDF7"/>
<path opacity="0.3" d="M562.211 73.0372L566.653 72.4182V72.0469H562.211V73.0372Z" fill="#DAE1E9"/>
<path fill-rule="evenodd" clip-rule="evenodd" d="M562.088 71.8008H566.897V74.1501C566.897 75.1512 566.047 76.0044 565.048 76.0044H563.937C562.937 76.0044 562.088 75.1512 562.088 74.1501V71.8008ZM562.578 72.2907V74.1501C562.578 74.8821 563.209 75.5145 563.937 75.5145H565.048C565.775 75.5145 566.407 74.8821 566.407 74.1501V72.2907H562.578Z" fill="#DAE1E9"/>
<path d="M566.774 72.0474H562.085C561.838 72.0474 561.715 71.9236 561.715 71.6761C561.715 71.4285 561.838 71.3047 562.085 71.3047H566.774C567.021 71.3047 567.144 71.4285 567.144 71.6761C567.144 71.9236 567.021 72.0474 566.774 72.0474Z" fill="white"/>
<path fill-rule="evenodd" clip-rule="evenodd" d="M561.971 71.5897C561.966 71.6056 561.961 71.6326 561.961 71.6749C561.961 71.7172 561.966 71.7442 561.971 71.7602C561.976 71.7749 561.981 71.7795 561.982 71.7805C561.983 71.7815 561.987 71.7859 562.002 71.7908C562.017 71.796 562.044 71.8013 562.086 71.8013H566.775C566.817 71.8013 566.844 71.796 566.859 71.7908C566.874 71.7859 566.878 71.7815 566.879 71.7805C566.88 71.7795 566.885 71.7749 566.89 71.7601C566.895 71.7442 566.9 71.7172 566.9 71.6749C566.9 71.6326 566.895 71.6056 566.89 71.5897C566.885 71.575 566.88 71.5703 566.879 71.5693C566.878 71.5684 566.874 71.5639 566.859 71.5591C566.844 71.5538 566.817 71.5485 566.775 71.5485H562.086C562.044 71.5485 562.017 71.5538 562.002 71.5591C561.987 71.5639 561.983 71.5683 561.982 71.5693C561.981 71.5703 561.976 71.5749 561.971 71.5897ZM561.635 71.2235C561.759 71.0993 561.924 71.0586 562.086 71.0586H566.775C566.936 71.0586 567.102 71.0993 567.226 71.2234C567.35 71.3475 567.39 71.5136 567.39 71.6749C567.39 71.8363 567.35 72.0023 567.226 72.1264C567.102 72.2506 566.936 72.2912 566.775 72.2912H562.086C561.924 72.2912 561.759 72.2506 561.635 72.1264C561.511 72.0023 561.471 71.8363 561.471 71.6749C561.471 71.5136 561.511 71.3475 561.635 71.2235Z" fill="#DAE1E9"/>
<path fill-rule="evenodd" clip-rule="evenodd" d="M563.322 71.3008V67.7109H563.812V71.3008H563.322Z" fill="#DAE1E9"/>
<path fill-rule="evenodd" clip-rule="evenodd" d="M564.926 71.3008V67.7109H565.416V71.3008H564.926Z" fill="#DAE1E9"/>
<path fill-rule="evenodd" clip-rule="evenodd" d="M562.716 71.3753L561.605 67.7854L562.073 67.6406L563.184 71.2305L562.716 71.3753Z" fill="#DAE1E9"/>
<path fill-rule="evenodd" clip-rule="evenodd" d="M565.676 71.2356L566.663 67.7695L567.134 67.9037L566.147 71.3698L565.676 71.2356Z" fill="#DAE1E9"/>
<path d="M81.3204 252.161C81.3204 252.161 80.7034 252.408 81.3204 252.161V252.161ZM86.5032 246.962C81.0736 241.267 74.41 236.563 67.006 234.459C59.4786 232.231 50.964 232.973 44.4238 237.43C53.8022 247.333 67.623 252.903 81.3204 252.161C83.2948 252.285 89.0946 252.408 90.6988 251.418C91.069 251.17 89.835 249.685 88.7244 248.447C88.2308 248.076 86.8734 247.333 86.5032 246.962Z" fill="#00C671"/>
<g opacity="0.2">
<path opacity="0.2" d="M88.5994 248.448C88.2292 248.076 86.8718 247.334 86.625 246.962C81.1954 241.268 74.5318 236.564 67.1278 234.46C63.4258 233.469 59.6004 233.098 55.8984 233.469C60.2174 233.593 64.5364 234.831 68.3618 236.812C75.1488 240.278 80.5784 245.972 84.8974 252.409C87.1186 252.409 89.8334 252.162 90.6972 251.666C91.0674 251.047 89.71 249.686 88.5994 248.448Z" fill="#191C3C"/>
</g>
<path d="M93.043 235.077C94.1536 238.172 95.6344 242.876 94.277 245.971C93.2898 248.323 91.3154 251.913 88.9708 251.418C86.9964 248.818 82.9242 243.371 80.2094 241.267C77.9882 239.534 74.6564 237.677 72.5586 235.82C67.2524 231.116 65.278 224.679 62.3164 218.242C67.6226 218.737 72.9288 219.728 78.1116 221.213C81.4434 222.203 84.8986 223.441 87.49 225.793C90.2048 228.145 91.809 231.611 93.043 235.077Z" fill="#00C671"/>
<path opacity="0.08" d="M81.6914 241.39C79.8404 239.285 76.7555 236.809 75.1513 234.705C71.5727 230.001 70.3387 224.678 69.1047 218.984C66.8835 218.612 64.7857 218.365 62.5645 218.117C65.5261 224.554 67.5005 230.991 72.8067 235.695C74.7811 237.552 78.2362 239.409 80.4574 241.142C81.6914 242.132 83.2956 243.865 84.7764 245.722C83.6658 244.113 82.5552 242.38 81.6914 241.39Z" fill="#F5F7F9"/>
<path d="M95.7583 218.118C97.6093 223.07 97.4859 228.392 97.4859 233.592C97.4859 235.572 97.9795 238.915 97.4859 240.771C97.1157 242.381 96.0051 243.866 95.1413 245.228C94.2775 246.342 93.2903 244.98 92.5499 243.866C91.9329 242.752 90.6989 240.895 91.1925 241.267C90.3287 238.296 89.8351 236.315 88.9713 233.344C88.2309 230.992 87.4905 228.64 86.9969 226.288C86.0097 220.222 87.1203 214.157 88.3543 208.215C91.6861 210.814 94.2775 214.281 95.7583 218.118Z" fill="#00C671"/>
<path d="M48.2488 238.297C55.0358 238.05 61.6994 238.297 68.2396 240.154C74.4096 241.887 80.086 244.858 85.2688 248.819C85.5156 249.067 85.7624 248.572 85.5156 248.448C80.4562 244.61 74.533 241.64 68.363 239.906C61.6994 238.05 55.1592 237.926 48.2488 238.297C48.1254 238.297 48.1254 238.173 48.2488 238.297Z" fill="#1E2022"/>
<path d="M64.6624 220.222C70.092 222.821 75.1514 226.288 79.4704 230.496C84.1597 235.077 87.2446 240.523 90.8232 245.97C90.8232 246.094 91.1935 245.97 91.0701 245.846C85.0235 234.581 76.6322 225.174 64.7858 220.098C64.6624 219.974 64.539 220.098 64.6624 220.222Z" fill="#1E2022"/>
<path d="M88.6016 210.69C92.1802 221.336 96.3758 231.487 93.9078 242.876C93.9078 243.123 94.1546 243.247 94.278 242.876C96.6226 232.106 93.2908 220.47 88.6016 210.69C88.6016 210.567 88.6016 210.567 88.6016 210.69Z" fill="#1E2022"/>
<path d="M53.1843 242.134C53.9247 241.392 54.6652 240.649 55.4056 240.03C56.2694 239.411 57.1331 238.916 58.1203 238.421V238.297C56.1459 238.916 54.1715 240.401 53.1843 242.134C53.0609 242.134 53.0609 242.134 53.1843 242.134Z" fill="#1E2022"/>
<path d="M58.6152 244.854C60.4662 241.388 63.3044 240.398 67.0064 239.903C67.2532 239.903 67.2532 239.531 67.0064 239.531C63.4278 240.026 59.8492 241.141 58.6152 244.854Z" fill="#1E2022"/>
<path d="M65.4011 245.35C67.6223 243.617 69.7201 241.017 72.8051 241.884C72.9285 241.884 73.0519 241.636 72.8051 241.636C69.8435 240.77 67.3755 243.369 65.4011 245.35C65.2777 245.35 65.2777 245.35 65.4011 245.35Z" fill="#1E2022"/>
<path d="M72.0666 248.817C74.041 246.217 77.0026 243.865 80.3344 245.722C80.5812 245.722 80.7046 245.474 80.4578 245.474C77.2494 243.741 73.7942 245.846 72.0666 248.817C72.0666 248.94 71.9432 248.817 72.0666 248.817Z" fill="#1E2022"/>
<path d="M56.5176 233.961C56.8878 236.189 58.8622 237.427 60.5898 238.665C60.7132 238.665 60.8366 238.541 60.7132 238.417C58.9856 237.303 57.258 236.065 56.5176 233.961C56.5176 233.961 56.641 233.961 56.5176 233.961Z" fill="#1E2022"/>
<path d="M63.6738 234.457C64.4142 236.561 65.895 238.418 67.4992 239.904C67.6226 240.028 67.8694 239.904 67.746 239.656C66.0184 238.171 64.7844 236.438 63.6738 234.457Z" fill="#1E2022"/>
<path d="M69.7207 236.933C70.0909 237.923 70.5845 238.79 71.2015 239.656C71.6951 240.275 72.4355 241.513 73.1759 241.76C73.1759 241.76 73.2993 241.76 73.4227 241.76V241.513C73.4227 241.513 73.2993 241.513 73.1759 241.513C73.1759 241.513 73.1759 241.637 73.1759 241.76C73.4227 241.76 72.4355 240.646 72.4355 240.646C72.1887 240.275 71.8185 240.027 71.5717 239.656C70.9547 238.666 70.3377 237.799 69.7207 236.933C69.7207 236.809 69.8441 236.809 69.7207 236.933Z" fill="#1E2022"/>
<path d="M74.7806 239.409C76.138 241.637 78.2358 243.742 80.2102 245.351C80.457 245.598 80.8273 245.227 80.5805 244.979C78.3593 243.246 76.755 241.266 74.904 239.285C74.904 239.285 74.6572 239.409 74.7806 239.409Z" fill="#1E2022"/>
<path d="M67.8687 227.277C71.6941 227.03 74.9025 227.277 78.2343 229.258C78.4811 229.382 78.6045 229.01 78.4811 228.886C75.5195 227.03 71.3239 225.792 67.8687 227.03C67.6219 227.153 67.6219 227.277 67.8687 227.277Z" fill="#1E2022"/>
<path d="M73.6706 233.59C75.5216 233.59 77.2492 233.59 78.9768 233.961C80.581 234.332 82.0618 234.951 83.666 235.446C83.9128 235.446 83.9128 235.199 83.666 235.075C80.4576 233.961 76.879 232.475 73.4238 233.342C73.6706 233.59 73.6706 233.59 73.6706 233.59Z" fill="#1E2022"/>
<path d="M80.7031 239.162C81.9371 239.162 83.2945 239.41 84.5285 239.534C86.0093 239.781 86.8731 240.524 87.8603 241.638C87.9837 241.762 88.2305 241.638 88.1071 241.39C87.2433 240.4 86.3795 239.657 85.0221 239.286C83.5413 239.039 82.0605 238.915 80.7031 239.162C80.7031 239.162 80.7031 239.039 80.7031 239.162Z" fill="#1E2022"/>
<path d="M75.5215 222.944C75.5215 224.306 76.2619 225.668 76.8789 227.029C77.2491 227.772 77.4959 229.258 78.6065 229.381C78.6065 229.381 78.7299 229.381 78.6065 229.258C76.8789 227.772 76.8789 224.925 75.5215 222.944C75.5215 222.821 75.6449 222.821 75.5215 222.944Z" fill="#1E2022"/>
<path d="M81.1953 224.555C81.5655 228.392 82.6761 232.106 84.0335 235.572C84.0335 235.696 84.4037 235.572 84.2803 235.572C82.9229 231.982 82.1825 228.392 81.1953 224.555Z" fill="#1E2022"/>
<path d="M87.3672 232.601C87.3672 235.819 88.1076 239.038 88.7246 242.256C88.7246 242.504 89.0948 242.38 89.0948 242.256C88.4778 239.038 88.1076 235.943 87.614 232.725C87.4906 232.477 87.3672 232.477 87.3672 232.601Z" fill="#1E2022"/>
<path d="M87.4898 216.634C89.711 219.234 91.562 221.957 93.0428 225.052C93.1662 225.3 93.5364 225.052 93.413 224.804C91.9322 221.71 90.0812 218.863 87.7366 216.387C87.4898 216.387 87.3664 216.511 87.4898 216.634Z" fill="#1E2022"/>
<path d="M94.7699 217.253C93.6593 219.605 93.4125 222.823 93.2891 225.423C93.2891 225.67 93.6593 225.67 93.6593 225.423C93.6593 223.937 93.9061 222.452 94.1529 220.843C94.3997 219.605 94.7699 218.491 94.8933 217.129C95.0167 217.129 94.7699 217.129 94.7699 217.253Z" fill="#1E2022"/>
<path d="M90.6974 226.413C92.425 229.013 93.4122 231.736 94.6462 234.583H94.7696C94.3994 231.612 92.7952 228.518 90.6974 226.413C90.574 226.289 90.6974 226.289 90.6974 226.413Z" fill="#1E2022"/>
<path d="M94.8953 234.704C95.6357 232.847 96.2527 230.99 97.2399 229.257C97.2399 229.133 97.1165 229.01 96.9931 229.133C96.1293 230.866 95.0187 232.723 94.8953 234.704C94.7719 234.828 94.7719 234.828 94.8953 234.704Z" fill="#1E2022"/>
<path opacity="0.2" d="M85.2695 250.429L86.2567 255.628H101.435L101.312 253.029L87.1205 249.562L85.2695 250.429Z" fill="#AAB2BA"/>
<path d="M95.6347 245.104L90.2051 244.733L94.5241 239.781L95.6347 245.104Z" fill="#FEC55E"/>
<path d="M91.316 249.934L86.0098 249.562L90.2054 244.734L91.316 249.934Z" fill="#FEC55E"/>
<path d="M101.806 254.759H86.998L99.8317 240.152L101.806 254.759Z" fill="#FEC55E"/>
<path d="M101.805 254.76L91.3164 249.932L95.6354 244.98L101.805 254.76Z" fill="#FED17E"/>
<path d="M86.0098 249.562L86.997 254.762L91.1926 249.934L86.0098 249.562Z" fill="#FED17E"/>
<path d="M90.2051 244.734L91.3157 249.934L95.6347 245.106L90.2051 244.734Z" fill="#FED17E"/>
<path d="M94.5254 239.781L95.636 244.98L99.8316 240.153L94.5254 239.781Z" fill="#FED17E"/>
<path d="M358.231 202.147C358.231 202.147 358.107 202.147 357.984 202.147C357.49 202.147 357.244 201.899 357.12 201.652C357.12 201.404 357.367 201.033 357.614 200.662C357.984 200.29 358.354 199.919 358.848 199.424C359.095 199.3 359.218 199.052 359.465 198.929C359.588 198.805 359.588 198.681 359.712 198.557C360.082 198.062 360.822 197.567 361.192 196.948C361.316 196.824 361.316 196.7 361.316 196.577C361.192 196.453 360.822 196.453 360.452 196.453C360.082 196.577 359.835 196.7 359.588 196.824V196.7C359.465 196.7 359.341 196.577 359.095 196.7H358.971C358.848 196.7 358.724 196.824 358.724 196.824C358.601 196.824 358.601 196.7 358.478 196.7C358.231 196.577 357.861 196.577 357.614 196.577C356.627 196.453 355.516 196.453 354.282 196.7C354.159 196.7 354.035 196.7 353.912 196.7L354.159 196.453C354.282 196.329 354.159 196.205 353.912 196.329H353.542C353.542 196.329 353.418 196.329 353.295 196.329L348.235 196.948C348.112 196.948 347.865 197.072 347.865 197.072L346.508 198.31C346.384 198.433 346.508 198.557 346.755 198.433L349.716 198.557L349.963 198.433L348.729 199.671C348.482 199.919 348.606 200.043 349.099 200.043H350.457L349.716 200.785L346.755 201.033L342.929 201.281L342.806 201.404L338.487 201.281L336.759 197.938L337.253 197.195L337.129 196.453L337.623 195.834L337.5 195.215C337.129 195.339 337.006 195.586 337.006 195.71V195.834L336.512 196.453H336.389V196.205L335.278 195.586L335.155 195.71C335.032 195.834 335.032 195.834 335.155 195.958L335.895 196.453V196.577L335.772 196.7L335.525 196.453L334.044 196.205L333.798 196.453L334.785 196.577L335.278 196.824L335.032 197.072L333.304 196.824V196.948C333.304 196.948 333.304 196.948 333.427 197.072L334.661 197.319L334.785 198.062L335.155 198.433L335.402 202.147L341.078 202.642L340.955 202.766L343.299 203.261L341.942 204.499C341.448 204.994 341.202 205.366 340.955 205.861L340.831 206.356L334.908 211.803H335.032L334.661 212.05L326.27 217.621L324.666 223.315L324.296 223.686L321.087 224.305L318.249 224.8C318.249 224.8 318.249 224.8 318.126 224.8C318.002 224.924 317.385 225.543 319.73 225.419C319.977 225.419 320.224 225.543 320.594 225.543C322.568 225.543 326.64 225.419 326.64 225.419C327.011 225.296 327.381 225.048 327.504 224.924L327.751 224.677C327.751 224.677 327.751 224.553 327.874 224.553C327.874 224.429 327.874 224.429 327.751 224.305L328.862 223.191H328.615H328.862C328.862 223.191 335.402 218.487 336.019 216.507L341.078 212.545L341.325 212.298L341.202 212.669C342.312 212.174 343.299 211.679 343.916 211.06L347.248 207.718C347.495 207.718 347.742 207.594 347.989 207.594L348.976 207.222L352.431 204.499H352.801L355.763 201.776C356.01 201.528 355.886 201.404 355.639 201.404L352.925 200.662L353.912 199.795C354.035 199.795 354.282 199.671 354.529 199.671C355.022 199.547 355.639 199.3 356.133 199.176C355.886 199.3 355.639 199.424 355.516 199.547C355.022 199.919 354.529 200.29 354.652 200.662C354.652 200.785 354.776 200.909 354.899 200.909C355.269 201.157 355.763 201.281 356.256 201.404C356.256 201.404 356.256 201.404 356.38 201.404C356.38 201.281 356.38 201.157 356.503 201.033C356.75 201.157 356.997 201.281 357.244 201.404C357.244 202.271 357.614 202.271 358.231 202.147C358.107 202.147 358.231 202.271 358.231 202.147C358.231 202.147 358.107 202.147 358.231 202.147ZM331.947 217.744L331.823 218.116V218.24L330.589 219.601L329.972 220.344C330.219 219.849 330.219 219.354 329.849 218.982L331.947 217.744Z" fill="#D1D3DB"/>
<path d="M324.418 220.344L324.171 222.077L319.606 224.305L316.15 225.048C316.15 225.048 316.397 226.533 319.112 226.657C321.827 226.781 327.133 226.409 327.133 226.409C327.503 226.038 327.627 225.543 327.627 225.048V224.429C327.627 224.057 327.38 223.686 327.01 223.562V220.715L324.418 220.344Z" fill="#E0A546"/>
<path d="M327.75 224.43C327.75 224.306 327.75 224.182 327.627 224.059C327.38 224.182 326.886 224.925 326.639 224.925C324.912 224.925 322.937 225.173 321.457 225.049C319.976 225.049 319.112 224.925 318.742 224.554L316.15 225.173C316.15 225.173 316.397 226.658 319.112 226.782C321.827 226.906 327.133 226.534 327.133 226.534C327.503 226.163 327.627 225.668 327.627 225.173L327.75 224.43Z" fill="#19A0FF"/>
<path d="M321.457 220.961V221.828L314.67 224.675C314.67 224.675 314.3 226.903 318.496 226.408L325.9 224.922C325.9 224.922 326.147 224.056 326.27 223.313C326.393 222.818 326.147 222.323 325.776 222.075L324.296 220.59L321.457 220.961Z" fill="#FEC55E"/>
<path d="M326.27 222.57C325.9 223.189 325.406 223.561 324.666 223.808L321.828 224.675C318.249 225.046 317.879 223.808 317.879 223.313L314.67 224.675C314.67 224.675 314.3 226.903 318.496 226.408L325.9 224.922C325.9 224.922 326.147 224.056 326.27 223.313C326.517 223.065 326.393 222.818 326.27 222.57Z" fill="#377DFF"/>
<path d="M328.245 191.375L327.011 203.506C329.232 208.705 327.134 220.713 327.134 220.713H324.419L322.815 205.239L321.211 200.907L328.245 191.375Z" fill="#3A3C4E"/>
<path opacity="0.3" d="M322.569 204.868L326.888 194.346L327.875 193.479C327.875 193.479 327.875 193.479 327.998 193.356L328.245 191.375L321.088 200.907L322.569 204.868Z" fill="#191C3C"/>
<path opacity="0.3" d="M324.297 220.713H325.037C325.037 220.713 325.654 213.038 322.939 208.582L324.297 220.713Z" fill="#191C3C"/>
<path d="M319.606 187.166L315.41 206.477L321.58 220.837L324.542 220.589C324.542 220.589 325.282 210.562 321.21 206.849L326.269 194.346L327.257 193.479C328.12 192.737 328.737 191.623 328.737 190.508V186.176L319.606 187.166Z" fill="#4D5068"/>
<path d="M333.056 163.151C332.562 162.408 332.439 161.542 332.315 160.799C332.192 159.809 332.192 158.818 332.315 157.828C332.315 157.457 332.439 156.962 332.315 156.59C332.315 156.343 332.192 155.971 332.068 155.724C331.822 154.486 331.945 153 331.698 151.762C331.698 151.515 331.575 151.143 331.328 150.896C330.958 150.524 330.464 150.524 330.094 150.648C329.724 150.896 329.477 151.267 329.354 151.762V151.639C328.737 153.248 329.107 154.981 328.737 156.714C328.49 157.704 328.243 158.571 327.996 159.561C327.873 160.551 327.873 161.665 328.49 162.408C328.737 162.656 328.983 162.903 329.354 163.151C330.217 163.77 331.081 164.141 332.068 164.513C331.822 164.265 331.575 163.894 331.575 163.522C332.068 163.894 332.562 164.265 333.179 164.513C333.796 164.76 334.413 164.76 335.03 164.513C334.413 164.389 333.549 163.894 333.056 163.151Z" fill="#DD9C3E"/>
<path d="M330.342 163.401C330.096 163.153 329.725 163.029 329.479 162.658C328.862 161.915 328.738 160.801 328.985 159.811C329.108 158.82 329.479 157.954 329.725 156.964C329.972 155.354 329.725 152.26 329.725 152.26C329.725 151.764 329.479 151.641 329.479 151.641C328.862 153.25 329.232 154.983 328.862 156.716C328.615 157.706 328.368 158.573 328.121 159.563C327.998 160.553 327.998 161.668 328.615 162.41C328.862 162.658 329.108 162.905 329.479 163.153C330.342 163.772 331.206 164.143 332.193 164.515C332.193 164.515 332.193 164.515 332.07 164.391C331.453 164.02 330.836 163.772 330.342 163.401Z" fill="#BF9447"/>
<path d="M332.564 163.648C332.564 163.772 332.564 163.896 332.688 164.02C332.935 164.144 333.181 164.267 333.428 164.391C333.675 164.391 333.799 164.515 333.922 164.515C333.305 164.267 332.935 164.02 332.564 163.648Z" fill="#BF9447"/>
<path d="M329.356 151.89C329.109 152.014 328.862 152.014 328.615 151.89C328.368 151.766 328.245 151.642 327.998 151.519C327.628 151.271 327.011 151.271 326.517 151.147C324.913 150.9 323.186 150.776 321.952 151.642H321.828C323.062 154.613 324.543 157.584 326.024 160.555C326.271 160.308 326.641 160.06 326.888 159.812C328.122 158.698 329.479 157.46 329.726 155.851C329.849 154.49 329.232 153.252 329.356 151.89Z" fill="#DD9C3E"/>
<path d="M326.395 158.574H322.076V167.239H326.395V158.574Z" fill="#FEC55E"/>
<path opacity="0.3" d="M323.801 161.049L322.197 160.677V158.449H326.516V158.821C326.516 160.306 325.159 161.42 323.801 161.049Z" fill="#191C3C"/>
<path d="M319.236 155.972V159.81C319.236 160.429 319.73 160.8 320.224 160.8H322.815C324.419 160.8 325.653 159.562 325.653 157.953V156.468V154.611C325.653 154.116 325.406 153.62 325.036 153.373L323.309 152.011C322.815 151.64 322.198 151.64 321.704 151.887C320.964 152.259 319.977 153.373 319.236 155.972Z" fill="#FEC55E"/>
<path d="M321.581 151.52L323.185 152.386C323.926 152.757 324.419 153.376 324.419 154.243V154.862L320.471 153.995L321.581 151.52Z" fill="#474963"/>
<path d="M314.795 156.471L318.991 156.842L319.361 156.471L320.965 156.718C320.965 156.718 322.816 157.337 324.79 155.728L325.16 154.366L320.225 151.891L314.795 156.471Z" fill="#474963"/>
<path d="M315.66 155.728L321.583 154.119C321.83 154.119 321.953 153.871 321.953 153.747V151.271C321.953 151.024 321.707 150.776 321.336 150.9L315.413 152.509C315.166 152.509 315.043 152.757 315.043 152.881V155.356C315.043 155.48 315.29 155.728 315.66 155.728Z" fill="#474963"/>
<path d="M321.582 154.116L329.233 157.83C329.233 157.83 329.356 157.83 329.356 157.706V156.22L321.582 152.383V154.116Z" fill="#191C3C"/>
<path d="M328.615 157.582C328.615 157.582 328.739 157.582 328.739 157.458V155.973L329.232 156.22V157.706C329.232 157.83 329.109 157.829 329.109 157.829L328.615 157.582Z" fill="#474963"/>
<path d="M327.629 157.09C327.629 157.09 327.753 157.09 327.753 156.966V155.48L328.247 155.728V157.214C328.247 157.337 328.124 157.337 328.124 157.337L327.629 157.09Z" fill="#474963"/>
<path d="M326.518 156.594C326.518 156.594 326.641 156.594 326.641 156.47V154.984L327.136 155.232V156.717C327.136 156.841 327.012 156.841 327.012 156.841L326.518 156.594Z" fill="#474963"/>
<path d="M325.406 155.973C325.406 155.973 325.53 155.973 325.53 155.849V154.363L326.025 154.611V156.096C326.025 156.22 325.901 156.22 325.901 156.22L325.406 155.973Z" fill="#474963"/>
<path d="M324.297 155.48C324.297 155.48 324.42 155.48 324.42 155.357V153.871L324.914 154.119V155.604C324.914 155.728 324.79 155.728 324.79 155.728L324.297 155.48Z" fill="#474963"/>
<path d="M323.186 154.985C323.186 154.985 323.309 154.985 323.309 154.862V153.5L323.803 153.748V155.233C323.803 155.357 323.679 155.357 323.679 155.357L323.186 154.985Z" fill="#474963"/>
<path d="M322.076 154.363C322.076 154.363 322.2 154.363 322.2 154.239V152.754L322.695 153.001V154.487C322.695 154.611 322.571 154.611 322.571 154.611L322.076 154.363Z" fill="#474963"/>
<path d="M314.795 156.469L320.718 154.86C320.965 154.86 321.088 154.613 321.088 154.489V151.146C321.088 150.899 320.841 150.651 320.471 150.775L314.548 152.384C314.301 152.384 314.178 152.632 314.178 152.756V156.098C314.301 156.346 314.548 156.593 314.795 156.469Z" fill="#191C3C"/>
<path d="M317.386 154.242C317.59 154.242 317.756 153.965 317.756 153.623C317.756 153.281 317.59 153.004 317.386 153.004C317.181 153.004 317.016 153.281 317.016 153.623C317.016 153.965 317.181 154.242 317.386 154.242Z" fill="#474963"/>
<path d="M325.776 156.346C325.776 156.346 326.763 155.48 327.257 156.346V157.708C327.257 158.203 327.01 158.698 326.516 158.946C326.269 159.069 326.023 159.069 325.652 158.946L325.776 156.346Z" fill="#FEC55E"/>
<path d="M329.354 153.002L328.49 152.136C328.243 151.888 328.367 151.641 328.49 151.517L328.614 151.393C328.86 151.145 329.107 151.269 329.231 151.393L330.094 152.259C330.341 152.507 330.218 152.755 330.094 152.878L329.971 153.002C329.848 153.126 329.601 153.126 329.354 153.002Z" fill="#191C3C"/>
<path opacity="0.3" d="M327.628 192.984C328.245 192.365 328.615 191.375 328.615 190.508V186.176L319.607 187.166L318.496 192.118V192.613C322.815 193.603 326.147 189.271 326.147 189.271L327.628 192.984Z" fill="#191C3C"/>
<path d="M317.385 164.145V172.81C317.385 173.924 317.632 175.038 318.002 176.152L318.495 177.39V191.378C322.814 192.368 326.146 188.036 326.146 188.036L328.367 193.73C329.231 192.492 329.725 191.007 329.601 189.645L328.984 176.895L329.231 164.145L326.516 164.763L326.146 165.135C325.036 166.373 323.061 166.249 322.074 164.763L317.385 164.145Z" fill="#377DFF"/>
<path d="M296.777 153.745L294.186 153.25L294.433 153.621C294.433 153.745 294.556 153.745 294.68 153.869L296.777 154.488L298.011 156.344L299.122 157.335L305.045 166.99L313.436 168.228V164.019L307.266 163.648L300.109 155.23L299.862 153.497L298.752 151.764L298.382 150.031L297.148 148.422C296.901 148.793 296.901 149.288 297.271 149.66L297.518 150.031L297.888 151.64L297.641 151.517L297.394 151.021L295.05 149.536V149.907C295.05 150.155 295.173 150.279 295.297 150.526L297.024 151.888L297.148 152.259L297.024 152.507L296.284 151.888L294.062 151.393V152.012L295.667 152.383L296.777 153.126" fill="#FEC55E"/>
<path opacity="0.3" d="M299.863 153.498L299 153.25C298.753 153.25 298.629 153.25 298.506 153.374L297.766 153.993V154.117L298.506 153.621C298.629 153.498 298.876 153.498 299 153.498H299.863V153.498Z" fill="#191C3C"/>
<path opacity="0.3" d="M312.572 167.981L313.559 168.105V164.02H313.189L312.572 167.981Z" fill="#191C3C"/>
<path d="M322.075 162.535L318.497 163.154L313.561 163.649V168.477L317.386 169.715L322.075 164.763V162.535Z" fill="#377DFF"/>
<path opacity="0.1" d="M328.986 176.891V176.396C328.862 176.148 328.739 176.025 328.616 175.901C328.739 175.777 328.862 175.653 328.986 175.653V173.549C328.862 173.549 328.739 173.549 328.739 173.425C328.862 173.177 328.862 172.93 328.616 172.682C328.739 172.559 328.862 172.435 329.109 172.435V171.444C328.986 171.321 328.739 171.321 328.492 171.444C328.122 171.692 327.628 171.94 327.258 172.187C326.888 172.435 326.888 172.93 327.258 173.177C326.888 173.425 326.888 174.044 327.382 174.168C327.752 174.292 328.245 174.415 328.616 174.539C328.245 174.787 327.628 175.034 327.382 175.282C327.135 175.529 327.135 175.777 327.258 176.025C327.258 176.148 327.505 176.396 327.628 176.52C328.122 177.881 327.628 177.634 327.752 178.624C327.752 178.996 327.875 179.367 327.999 179.738C327.382 179.367 328.986 180.11 328.616 179.367C328.245 178.624 328.986 176.891 328.986 176.891Z" fill="#3A3C4E"/>
<path opacity="0.2" d="M328.616 173.18L328.122 177.513L324.42 175.532L324.173 173.056L323.186 172.066L322.816 170.581L321.335 168.848C321.088 169.219 321.212 169.714 321.459 170.086L321.952 170.952V173.056L321.582 173.18L320.348 171.447C319.978 171.819 319.978 172.314 320.101 172.809L322.816 177.142L329.233 181.845L328.986 177.018V173.304H328.616V173.18Z" fill="#3A3C4E"/>
<path d="M331.452 172.559L330.712 179.492L329.972 180.482C329.601 180.977 328.984 181.101 328.491 180.73L322.814 176.273L320.1 171.94C319.853 171.569 319.853 170.95 320.346 170.579L321.58 172.312L321.951 172.188V170.084L321.21 168.97C320.963 168.598 320.963 168.227 321.21 167.979L321.334 167.855L322.814 169.836L323.185 171.322L324.172 172.312L324.419 174.788L328.121 176.768L328.614 172.436L331.452 172.559Z" fill="#FEC55E"/>
<path opacity="0.3" d="M331.453 172.559H328.615V173.178H331.33L331.453 172.559Z" fill="#191C3C"/>
<path d="M326.518 162.535L331.33 164.516C331.7 164.763 332.071 165.135 332.071 165.506V172.438H328.245V169.344L326.641 164.64V162.535H326.518Z" fill="#377DFF"/>
</g>
<defs>
<linearGradient id="paint0_linear" x1="568.983" y1="163.218" x2="569.129" y2="163.218" gradientUnits="userSpaceOnUse">
<stop offset="1.50016e-07" stop-color="#FFC107"/>
<stop offset="1" stop-color="#DE4437"/>
</linearGradient>
<linearGradient id="paint1_linear" x1="569.131" y1="163.463" x2="569.479" y2="163.463" gradientUnits="userSpaceOnUse">
<stop offset="1.50016e-07" stop-color="#FFC107"/>
<stop offset="1" stop-color="#DE4437"/>
</linearGradient>
<linearGradient id="paint2_linear" x1="568.846" y1="161.901" x2="587.873" y2="161.901" gradientUnits="userSpaceOnUse">
<stop offset="1.50016e-07" stop-color="#FFC107"/>
<stop offset="1" stop-color="#DE4437"/>
</linearGradient>
<linearGradient id="paint3_linear" x1="453.109" y1="344.999" x2="461.683" y2="194.999" gradientUnits="userSpaceOnUse">
<stop offset="0.02065" stop-color="white"/>
<stop offset="1" stop-color="#F0F1F3"/>
</linearGradient>
<clipPath id="clip0">
<rect width="617" height="345" fill="white"/>
</clipPath>
</defs>
</svg>
