<svg width="100" height="100" viewBox="0 0 100 100" fill="none" xmlns="http://www.w3.org/2000/svg">
<path d="M49.9999 99.9998C77.6141 99.9998 99.9998 77.6141 99.9998 49.9999C99.9998 22.3857 77.6141 0 49.9999 0C22.3857 0 0 22.3857 0 49.9999C0 77.6141 22.3857 99.9998 49.9999 99.9998Z" fill="#65B168"/>
<path d="M37.2246 72.5554L62.9343 98.2652C84.2277 92.587 100.001 73.1864 100.001 50.0003C100.001 49.5271 100.001 49.0539 100.001 48.5807L79.8113 29.9688L37.2246 72.5554Z" fill="#37833B"/>
<path d="M51.2605 61.197C53.4687 63.4052 53.4687 67.1906 51.2605 69.3988L46.6864 73.973C44.4782 76.1812 40.6927 76.1812 38.4845 73.973L18.453 53.7837C16.2448 51.5755 16.2448 47.79 18.453 45.5818L23.0271 41.0077C25.2353 38.7995 29.0208 38.7995 31.229 41.0077L51.2605 61.197Z" fill="white"/>
<path d="M68.7685 26.3397C70.9767 24.1315 74.7622 24.1315 76.9704 26.3397L81.5445 30.9139C83.7527 33.1221 83.7527 36.9075 81.5445 39.1157L46.8443 73.6583C44.6361 75.8665 40.8506 75.8665 38.6424 73.6583L34.0683 69.0842C31.8601 66.876 31.8601 63.0905 34.0683 60.8823L68.7685 26.3397Z" fill="white"/>
</svg>
