<svg width="18" height="20" viewBox="0 0 18 20" fill="none" xmlns="http://www.w3.org/2000/svg">
<path d="M16.6699 15.9807V3.10352C16.6699 1.99895 15.7745 1.10352 14.6699 1.10352H3.66992C2.56535 1.10352 1.66992 1.99895 1.66992 3.10352V16.7133C1.66992 17.8178 2.56535 18.7133 3.66992 18.7133H11.6323" stroke="#5A5B6A" stroke-width="1.5"/>
<path d="M9.58652 12.418L13.8847 18.4752L15.5204 17.3145L11.2222 11.2574L10.2646 11.5895L9.58652 12.418Z" fill="#5A5B6A"/>
<path d="M14.7051 17.8965L10.4076 11.8403L11.2253 11.26L15.5228 17.3162L14.7051 17.8965Z" fill="#5A5B6A"/>
<path d="M8.4493 10.8168L9.58562 12.4181L10.4034 11.8377L10.0968 11.0101L9.26715 10.2364L8.4493 10.8168Z" fill="#787885"/>
<path d="M10.4023 11.8398L9.26622 10.2388L10.0839 9.65851L11.2201 11.2596L10.4023 11.8398Z" fill="#787885"/>
<path d="M4.83363 10.9118L4.48551 11.1588L4.13739 11.4058C4.67313 12.1608 4.49476 13.2109 3.73976 13.7467L4.23383 14.4429C4.98882 13.9071 6.03892 14.0855 6.57469 14.8405L6.92282 14.5935L7.27091 14.3465C6.73517 13.5915 6.91354 12.5413 7.66854 12.0056L7.1745 11.3094C6.41947 11.8451 5.36938 11.6668 4.83363 10.9118Z" fill="#5A5B6A"/>
<path d="M5.44793 5.58744C5.98368 6.34244 5.80531 7.39253 5.05031 7.92831L5.54435 8.62453C6.29934 8.08878 7.34943 8.26715 7.88521 9.02215L8.23334 8.77512L7.35719 6.75367L5.79606 5.34041L5.44793 5.58744Z" fill="#5A5B6A"/>
<path d="M6.14371 5.0924L5.79558 5.33943L8.23287 8.7741L8.58099 8.52707C8.04524 7.77208 8.22362 6.72196 8.97862 6.18621L8.48458 5.48999C7.72958 6.02577 6.67949 5.8474 6.14371 5.0924Z" fill="#5A5B6A"/>
<path d="M12.0934 5.68713L11.7453 5.93416L11.3972 6.18119C11.9329 6.93619 11.7545 7.98631 10.9995 8.52206L11.4936 9.21828C12.2486 8.68253 13.2987 8.8609 13.8344 9.6159L14.1826 9.36887L14.5307 9.12184C13.9949 8.36684 14.1733 7.31672 14.9283 6.78097L14.4342 6.08475C13.6792 6.6205 12.6291 6.44213 12.0934 5.68713Z" fill="#5A5B6A"/>
</svg>
