<svg width="120" height="100" viewBox="0 0 120 100" fill="none" xmlns="http://www.w3.org/2000/svg">
<path d="M1.02888 89.3143L53.3834 3.47284C56.2919 -1.15761 63.1998 -1.15761 65.7448 3.47284L118.099 89.3143C121.008 93.9448 117.372 100 111.919 100H7.20962C1.75603 100 -1.87971 93.9448 1.02888 89.3143Z" fill="#FFC147"/>
<path d="M54.3867 81.8386C54.3867 81.1264 54.3867 80.4141 54.7209 79.7018C55.055 78.9896 55.3892 78.6335 55.7234 77.9212C56.0575 77.209 56.7258 77.209 57.3942 76.8528C58.0625 76.4967 58.7308 76.4967 59.3991 76.4967C60.0674 76.4967 61.0699 76.4967 61.7383 76.8528C62.4066 77.209 63.0749 77.5651 63.4091 77.9212C63.7432 78.2773 64.0774 78.9896 64.4115 79.7018C64.7457 80.4141 64.7457 81.1264 64.7457 81.8386C64.7457 82.5509 64.7457 83.2631 64.4115 83.9754C64.0774 84.6876 63.7432 85.0437 63.4091 85.756C63.0749 86.4682 62.4066 86.4682 61.7383 86.8244C61.0699 87.1805 60.4016 87.1805 59.3991 87.1805C58.3966 87.1805 57.7283 87.1805 57.3942 86.8244C57.06 86.4682 56.0575 86.1121 55.7234 85.756C55.3892 85.3999 55.055 84.6876 54.7209 83.9754C54.3867 83.2631 54.3867 82.5509 54.3867 81.8386ZM63.7432 70.7987H56.0575L54.7209 35.8984H64.7457L63.7432 70.7987Z" fill="#292A31"/>
</svg>
